<?xml version="1.0" encoding="UTF-8" standalone="no"?>
<!-- Created with Inkscape (http://www.inkscape.org/) -->

<svg
   xmlns:dc="http://purl.org/dc/elements/1.1/"
   xmlns:cc="http://creativecommons.org/ns#"
   xmlns:rdf="http://www.w3.org/1999/02/22-rdf-syntax-ns#"
   xmlns:svg="http://www.w3.org/2000/svg"
   xmlns="http://www.w3.org/2000/svg"
   xmlns:sodipodi="http://sodipodi.sourceforge.net/DTD/sodipodi-0.dtd"
   xmlns:inkscape="http://www.inkscape.org/namespaces/inkscape"
   id="svg4248"
   version="1.1"
   inkscape:version="0.91 r13725"
   width="283.125"
   height="964.6875"
   viewBox="0 0 283.125 964.6875"
   sodipodi:docname="KnightSilhouette.svg">
  <metadata
     id="metadata4254">
    <rdf:RDF>
      <cc:Work
         rdf:about="">
        <dc:format>image/svg+xml</dc:format>
        <dc:type
           rdf:resource="http://purl.org/dc/dcmitype/StillImage" />
        <dc:title></dc:title>
      </cc:Work>
    </rdf:RDF>
  </metadata>
  <defs
     id="defs4252" />
  <sodipodi:namedview
     pagecolor="#ffffff"
     bordercolor="#666666"
     borderopacity="1"
     objecttolerance="10"
     gridtolerance="10"
     guidetolerance="10"
     inkscape:pageopacity="0"
     inkscape:pageshadow="2"
     inkscape:window-width="1600"
     inkscape:window-height="837"
     id="namedview4250"
     showgrid="false"
     inkscape:zoom="0.69452543"
     inkscape:cx="141.5625"
     inkscape:cy="482.34375"
     inkscape:window-x="-8"
     inkscape:window-y="-8"
     inkscape:window-maximized="1"
     inkscape:current-layer="svg4248" />
  <path
     style="fill:#000000"
     d="m 20.583625,963.98437 c -0.02275,-0.38671 -0.59603,-2.80949 -1.273942,-5.38406 -1.066143,-4.04878 -1.042673,-4.81969 0.173825,-5.70919 1.867148,-1.36537 8.659214,-0.10481 10.107443,1.87576 1.187007,1.62328 4.170462,1.10006 4.142852,-0.72657 -0.02913,-1.92693 -4.508504,-5.38331 -6.724465,-5.18878 -1.191073,0.10453 -3.958557,0.1245 -6.149963,0.0441 -3.862986,-0.14137 -3.984375,-0.24112 -3.984375,-3.27656 0,-2.44509 0.522935,-3.369 2.387862,-4.21875 3.972495,-1.80994 9.890565,-1.28812 14.018388,1.236 2.0625,1.26131 4.658238,2.70488 5.768307,3.20803 1.110069,0.50316 2.28169,1.341 2.603603,1.86188 0.685147,1.10859 -3.914399,7.9095 -6.167764,9.11962 -0.850221,0.45666 -4.265763,2.41228 -7.590094,4.34588 -6.235675,3.627 -7.240995,4.01372 -7.311677,2.8125 z m 211.681995,-5.92321 c -1.93359,-1.02075 -3.51562,-2.19647 -3.51562,-2.61263 0,-0.87497 2.90047,-2.376 7.26562,-3.75994 2.85534,-0.90534 3.04688,-0.82565 3.04688,1.26788 0,2.75316 -1.57083,7.05825 -2.55492,7.00209 -0.39948,-0.0225 -2.30836,-0.87665 -4.24196,-1.8974 z m -186.179727,-9.48525 8.117144,-7.79466 1.831707,-7.6475 c 1.00744,-4.20612 3.395504,-10.44381 5.306809,-13.86154 2.819242,-5.04128 4.170656,-6.49238 7.160525,-7.68869 4.053456,-1.62186 4.296611,-1.97887 2.391616,-3.51142 -0.711594,-0.57247 -1.563381,-2.20101 -1.892861,-3.61898 -0.497103,-2.13935 -0.28633,-2.57812 1.238477,-2.57812 1.010643,0 2.098266,-0.42188 2.41694,-0.9375 0.9573,-1.54895 2.09175,-1.06491 2.667908,1.13833 0.301721,1.15378 0.05004,2.38041 -0.566632,2.76153 -0.610211,0.37713 -0.869692,0.92547 -0.576622,1.21854 0.29307,0.29307 1.61302,-0.3168 2.933221,-1.35528 1.320202,-1.03846 2.888904,-1.88812 3.486004,-1.88812 0.597099,0 1.907015,-0.43958 2.910922,-0.97687 1.421055,-0.76051 1.620212,-1.36004 0.89929,-2.70709 -0.808261,-1.51026 -0.400983,-1.86245 3.203257,-2.77001 5.052289,-1.27217 7.988265,-4.94768 8.06543,-10.097 0.02972,-1.98291 0.385735,-5.29278 0.791156,-7.35528 l 0.737138,-3.75 1.108941,2.8125 c 3.668307,9.30352 4.132157,11.95496 2.474617,14.14529 -0.74593,0.98572 -1.369661,2.4527 -1.386067,3.25995 -0.01959,0.96357 -3.65266,3.03818 -10.576688,6.03959 -7.215528,3.12778 -11.668767,5.69941 -14.098728,8.14164 -1.953518,1.96337 -4.135489,3.56978 -4.848821,3.56978 -2.113073,0 -7.619963,7.17232 -9.719641,12.65912 -1.073106,2.8042 -2.482511,7.67137 -3.132011,10.81594 -1.109617,5.37219 -1.579109,6.0726 -7.776791,11.6015 -10.02343,8.94169 -12.377963,9.22013 -3.16624,0.37435 z m 46.648719,-51.03523 c 3.118885,-1.35261 5.414269,-2.87422 5.100854,-3.38133 -0.372319,-0.60243 -0.772941,-0.6032 -1.155779,-0.002 -0.322265,0.5059 -1.957031,1.21727 -3.632812,1.58082 C 91.371094,896.10186 90,896.74818 90,897.17456 c 0,0.42638 -0.84375,0.5546 -1.875,0.28492 -1.303987,-0.341 -1.875,-0.0288 -1.875,1.02527 0,1.92802 -0.206302,1.95804 6.484612,-0.94373 z M 221.1794,952.17722 c -1.84351,-1.1115 -6.48945,-4.84978 -10.32432,-8.30719 -6.73834,-6.07519 -7.0808,-6.59451 -10.19903,-15.46522 -2.7872,-7.929 -3.90263,-9.8496 -8.19131,-14.10415 -2.73061,-2.70887 -4.96474,-5.26976 -4.96474,-5.69087 0,-1.03592 -13.71689,-7.32127 -17.8125,-8.16203 -5.18037,-1.06344 -8.05354,-2.92339 -10.23973,-6.62872 -1.85334,-3.14117 -1.9351,-3.89048 -0.95,-8.70614 1.63921,-8.01324 1.85609,-8.42958 2.98893,-5.7379 0.83162,1.97598 1.04973,2.07907 1.38997,0.65703 0.50435,-2.10794 -1.88757,-5.85901 -4.67355,-7.32919 -1.16015,-0.61222 -4.35821,-3.15831 -7.1068,-5.65798 -5.36584,-4.8799 -7.03233,-5.40244 -9.65633,-3.02774 -0.92202,0.83442 -3.55661,1.72905 -5.85464,1.98807 -3.5336,0.39829 -4.36979,0.16422 -5.4198,-1.51712 -1.45405,-2.32829 -3.46186,-2.5329 -6.00199,-0.61163 -2.44328,1.848 -9.77178,1.81225 -12.44581,-0.0607 -2.01521,-1.41151 -2.35726,-1.34475 -6.00412,1.17187 -9.257602,6.38847 -11.946577,10.82586 -11.958399,19.73392 -0.0069,5.23863 -1.545974,8.35006 -4.796145,9.69632 -3.449985,1.42903 -6.870558,0.52727 -11.041649,-2.9109 -1.839554,-1.51628 -3.832131,-2.7569 -4.427949,-2.7569 -1.663666,0 -2.320135,3.7779 -0.760466,4.3764 1.73559,0.66601 1.717767,4.45009 -0.02778,5.89876 -1.772608,1.47113 -4.923158,0.43367 -6.25815,-2.06079 -0.901027,-1.68358 -0.695736,-2.23278 1.407245,-3.7647 1.354187,-0.98645 2.462162,-2.45656 2.462162,-3.26691 0,-1.27998 -0.215333,-1.30048 -1.640625,-0.15619 -5.050016,4.05441 -5.281056,4.00204 -11.420978,-2.58906 -4.463236,-4.7912 -5.504321,-6.43594 -4.692775,-7.41379 0.652994,-0.78682 2.151495,-1.07682 4.008021,-0.7757 l 2.965107,0.48094 -2.605942,-1.50275 c -1.554022,-0.89614 -2.347935,-1.95782 -1.966776,-2.6301 2.520216,-4.44516 5.295464,-4.94118 8.407302,-1.50265 1.496328,1.65343 1.499026,1.78154 0.03751,1.78154 C 61.679638,875.625 60,879.12522 60,882.71728 60,884.06977 60.545327,885 61.338206,885 c 0.736014,0 2.218484,1.11909 3.294379,2.48687 1.075896,1.36778 2.199723,2.24332 2.497394,1.94565 1.109856,-1.10985 -0.806721,-4.56989 -2.99145,-5.40052 -4.229001,-1.60787 -2.599235,-6.532 2.161929,-6.532 3.522723,0 3.434546,-0.29391 1.968897,6.5625 -0.165333,0.77344 0.12127,1.61719 0.636895,1.875 0.515625,0.25781 1.323702,-1.53028 1.795727,-3.97355 0.706434,-3.65659 0.582074,-4.74743 -0.703125,-6.16757 -0.858744,-0.9489 -1.561352,-2.20615 -1.561352,-2.79391 0,-0.58774 -0.594735,-0.8404 -1.321634,-0.56146 -0.726898,0.27893 -2.603912,-0.15594 -4.17114,-0.96638 -2.834881,-1.46598 -2.842344,-1.49068 -1.454031,-4.81339 4.138343,-9.90444 5.566326,-36.72855 2.66037,-49.97399 -0.83338,-3.79857 -1.2905,-8.01732 -1.015822,-9.375 0.872968,-4.3149 -2.833493,-39.27098 -5.033177,-47.4685 -1.344534,-5.01065 -3.140181,-18.24313 -2.554999,-18.82832 1.075045,-1.07504 6.375921,0.7085 9.221079,3.10255 1.566526,1.31814 4.306499,5.42774 6.088827,9.13244 l 3.240596,6.73581 -0.915719,45.39751 c -0.503646,24.96864 -1.102662,46.25605 -1.331149,47.30538 -0.228486,1.04932 -0.720935,4.42432 -1.09433,7.5 -0.373396,3.07567 -1.082075,6.36654 -1.574843,7.31305 -1.043699,2.00473 -0.222423,3.28872 1.196178,1.87013 1.119916,-1.11992 3.652358,-19.14136 3.532055,-25.13492 -0.04458,-2.22098 0.169381,-4.44335 0.475468,-4.93861 0.306088,-0.49526 0.583869,-10.13775 0.617292,-21.42774 0.09507,-32.11542 1.599687,-57.71404 3.673152,-62.49288 3.448968,-7.94905 11.367403,-12.18736 22.769647,-12.18736 8.71771,0 8.49502,0.35655 8.13562,-13.02632 -0.2247,-8.36709 -1.83214,-19.48472 -4.72281,-32.66447 -1.52384,-6.94784 -1.44825,-9.76017 0.27154,-10.10326 1.22353,-0.24408 1.75806,0.99062 2.628,6.0703 0.60063,3.50719 1.90781,9.78635 2.90483,13.95369 3.27771,13.70008 3.74043,34.625 1.01414,45.86052 -0.50046,2.0625 -1.61007,7.125 -2.46581,11.25 -0.85573,4.125 -1.93614,8.55469 -2.40091,9.84375 -0.46477,1.28906 -1.52313,6.3427 -2.35192,11.23031 -0.82878,4.88761 -2.12972,10.09099 -2.89096,11.56306 -1.93299,3.738 -2.964596,11.2231 -3.572865,25.92383 -0.287278,6.94289 -0.937856,13.03898 -1.445747,13.54687 -0.509531,0.50953 -0.923428,6.27341 -0.923428,12.8596 l 0,11.93615 -2.739487,1.95069 c -3.419714,2.43505 -5.494758,8.00615 -6.065135,16.28373 -0.432095,6.27078 -1.598137,9.08076 -3.768193,9.08076 -1.84213,0 -8.158163,-3.54027 -9.519697,-5.336 -1.192592,-1.57291 -1.287509,-1.5158 -1.315173,0.79116 -0.02342,1.95285 0.624023,2.7372 3.01706,3.65505 1.675781,0.64275 3.397289,1.21137 3.825573,1.26359 0.428285,0.0522 1.377503,0.91387 2.109375,1.91476 0.731872,1.00089 1.330677,1.3173 1.330677,0.70312 0,-0.61417 0.795681,-1.11668 1.76818,-1.11668 2.432038,0 4.49032,-4.79206 5.18253,-12.06589 0.626802,-6.5865 2.456616,-11.22925 5.464312,-13.86451 1.083384,-0.94922 1.736381,-1.30398 1.451109,-0.78835 -3.722497,6.72847 -6.24515,16.72846 -4.493162,17.81124 0.516742,0.31937 0.939531,-0.21141 0.939531,-1.1795 0,-0.9681 0.631599,-3.84065 1.40355,-6.38346 1.183734,-3.89918 2.233294,-5.21061 6.70129,-8.37328 7.60942,-5.38634 8.00093,-5.84974 6.70091,-7.93141 -1.47504,-2.36193 0.32677,-8.32926 3.3815,-11.19903 3.31095,-3.11047 11.16395,-3.30169 13.25262,-0.32269 1.85816,2.65023 3.57701,2.68082 5.29445,0.0942 1.03163,-1.55372 2.34086,-2.03673 5.71759,-2.10937 6.27057,-0.1349 9.38051,3.0956 10.03781,10.42696 l 0.47903,5.34286 7.33987,4.48985 c 8.11335,4.96301 9.64727,5.45201 8.11375,2.58658 -0.56023,-1.0468 -1.18232,-3.19688 -1.38242,-4.77796 l -0.36382,-2.8747 3.17321,3.6061 c 2.1526,2.44626 3.52388,5.26449 4.26353,8.76234 1.44031,6.81132 2.69572,9.014 2.73362,4.79627 0.0443,-4.92133 -1.86216,-10.10009 -5.13299,-13.944 -4.56449,-5.36421 -4.83634,-6.40259 -4.96828,-18.97727 -0.1936,-18.45233 -2.86392,-33.82596 -10.88839,-62.68695 -1.34275,-4.82938 -3.4398,-11.79032 -4.6601,-15.46875 -1.2203,-3.67842 -2.93981,-9.2193 -3.82112,-12.31305 -0.88133,-3.09375 -2.27027,-7.73438 -3.08656,-10.3125 -1.87984,-5.93723 -1.82229,-21.13538 0.11184,-29.53125 0.77209,-3.35156 1.87239,-10.06362 2.44511,-14.91568 0.57272,-4.85206 1.22885,-9.12535 1.45805,-9.49621 0.61553,-0.99596 4.12944,-1.76667 4.59803,-1.00849 0.22217,0.35949 -0.42434,6.54253 -1.43669,13.74011 -1.72815,12.28683 -2.89219,40.85031 -1.71359,42.0483 0.29318,0.29801 2.87957,0.0496 5.74754,-0.55193 4.43566,-0.93039 5.82947,-0.85889 9.33191,0.4787 11.34523,4.33278 15.45935,13.25205 16.29651,35.3302 0.2835,7.47656 1.12144,20.13281 1.86209,28.125 0.74067,7.99219 1.79849,20.4375 2.35074,27.65625 1.11539,14.57992 1.13352,14.74901 2.71541,25.3125 1.19944,8.0096 3.55448,15.46875 4.88387,15.46875 1.09344,0 1.04607,-0.35881 -1.11406,-8.4375 -2.02607,-7.57732 -3.04608,-15.53689 -4.62538,-36.09375 -0.55459,-7.21875 -1.45736,-16.71094 -2.00615,-21.09375 -0.54879,-4.38281 -1.2196,-16.41173 -1.49068,-26.73092 -0.59017,-22.46588 0.59528,-29.98596 5.86895,-37.23058 2.99349,-4.11226 8.96426,-8.226 11.9394,-8.226 1.36996,0 1.36591,0.0649 -1.60902,25.78125 -0.77543,6.70312 -1.81472,16.19531 -2.30955,21.09375 -1.19348,11.81491 0.30146,63.10702 2.06297,70.78125 1.67151,7.28213 5.25613,14.1766 9.47869,18.23078 4.1722,4.00584 4.34455,6.24884 0.54428,7.08352 -1.55138,0.34073 -2.61319,0.95525 -2.3596,1.36557 0.2536,0.41033 1.83678,0.46469 3.51819,0.12081 2.84701,-0.58227 3.4588,-0.20392 8.90254,5.50579 5.62738,5.90231 6.69126,7.46317 5.18143,7.60187 -5.93812,0.54552 -10.0873,2.51642 -14.04538,6.6717 -1.13683,1.19348 -3.13505,3.21578 -4.44048,4.49399 -1.30544,1.27822 -2.37352,3.16159 -2.37352,4.18527 0,1.65156 -0.15787,1.70337 -1.40139,0.45984 -1.01229,-1.01228 -1.48741,-4.05585 -1.71121,-10.96172 -0.24801,-7.65276 -0.65209,-9.93851 -2.02516,-11.45574 -0.94344,-1.04249 -2.38824,-1.8814 -3.21067,-1.86424 -1.12997,0.0235 -0.94749,0.48742 0.74686,1.89844 2.77832,2.31373 2.2905,2.85813 -2.62185,2.92592 -3.0886,0.0426 -4.32438,0.60677 -6.1926,2.82703 -1.28369,1.52558 -2.33398,3.13235 -2.33398,3.57061 0,0.43825 -0.73828,0.96872 -1.64062,1.17881 -1.06719,0.24847 0.4968,1.39832 4.47457,3.28973 6.35365,3.02114 10.29105,5.87003 10.29105,7.44606 0,1.25877 3.28623,4.13431 4.06045,3.553 0.34488,-0.25893 0.43042,-0.20385 0.19009,0.12241 -0.24033,0.32627 0.60342,1.41158 1.875,2.41181 1.27158,1.00021 2.31196,2.60681 2.31196,3.5702 0,0.9634 0.35478,1.9709 0.78839,2.23888 0.43361,0.26799 1.54741,3.35148 2.47512,6.85221 1.52195,5.74312 2.28428,6.9376 7.80311,12.22657 5.99129,5.74172 9.57355,7.50497 4.51015,2.21991 l -2.56779,-2.68022 4.51113,-3.87823 c 5.45412,-4.68891 13.23679,-7.81438 18.4978,-7.42861 3.56359,0.2613 3.82584,0.47332 3.82584,3.09303 0,2.63714 -0.41186,2.95863 -6.60572,5.15625 -4.9739,1.76475 -7.69108,3.44587 -10.99936,6.80531 l -4.39364,4.46147 4.43686,2.78634 c 5.04085,3.16557 4.34145,3.71813 -0.78999,0.6241 z M 171.5625,897.1875 c 0,-1.03125 -0.60219,-1.875 -1.33821,-1.875 -2.07512,0 -5.00227,-4.34889 -5.6977,-8.4651 -0.3459,-2.04732 -1.06762,-3.7224 -1.60382,-3.7224 -0.63738,0 -0.72017,1.37948 -0.23912,3.98437 0.40469,2.19141 0.81191,5.25 0.90492,6.79688 0.13789,2.29329 0.75973,3.01907 3.3684,3.93146 4.36461,1.52654 4.60553,1.49253 4.60553,-0.65021 z m 6.62413,-3.78298 c 2.72671,-1.4593 2.25759,-2.902 -0.59141,-1.81882 -3.48226,1.32396 -6.56685,1.1237 -7.92653,-0.51461 -0.65223,-0.7859 -1.40443,-1.21036 -1.67154,-0.94325 -0.26711,0.26712 0.28027,1.332 1.2164,2.36641 1.85012,2.04437 6.05664,2.47109 8.97308,0.91027 z m -88.167827,-2.33343 c 1.808241,-2.1788 0.706421,-2.41144 -1.907809,-0.40281 -1.736699,1.33437 -1.941338,1.79534 -0.803911,1.81087 0.839209,0.0114 2.059482,-0.62215 2.711719,-1.40806 z M 201.5625,889.4971 c 1.80469,-0.85125 4.125,-1.85475 5.15625,-2.23 1.84655,-0.67192 1.8471,-0.68881 0.0368,-1.11275 -1.92848,-0.45157 -9.8805,3.38226 -9.8805,4.76357 0,0.44046 0.31641,0.6492 0.70312,0.46388 0.38672,-0.18534 2.17969,-1.03345 3.98438,-1.8847 z m -18.98438,-0.72185 c 2.8026,-1.27214 3.98438,-2.3783 3.98438,-3.72942 0,-1.05646 0.40864,-1.92083 0.90808,-1.92083 0.49944,0 0.66524,0.63281 0.36845,1.40625 -0.34727,0.90495 0.02,1.40625 1.03009,1.40625 1.10345,0 1.40541,-0.51773 1.01655,-1.74293 -1.01654,-3.20281 0.37975,-4.81957 4.16234,-4.81957 2.18309,0 4.02695,-0.6049 4.82158,-1.58178 1.13263,-1.39242 1.08108,-1.50465 -0.43064,-0.9375 -0.94452,0.35436 -3.47577,0.66214 -5.625,0.68396 -3.4289,0.0348 -4.16616,0.44483 -6.01708,3.34626 -1.16015,1.81861 -2.10937,3.64188 -2.10937,4.0517 0,0.96193 -7.44614,3.81236 -9.95899,3.81236 -1.89908,0 -4.10351,-3.29728 -4.10351,-6.13786 0,-0.74917 -0.4503,-1.36214 -1.00068,-1.36214 -1.0187,0 -0.68101,1.94966 1.17728,6.79687 0.82961,2.164 1.53483,2.57482 4.39026,2.55754 1.87104,-0.0113 5.19486,-0.83445 7.38627,-1.82916 z m -59.71906,-25.83057 c 1.52127,-0.78668 2.76594,-1.59593 2.76594,-1.79833 0,-0.2024 0.25607,-1.03532 0.56905,-1.85092 0.40475,-1.05475 0.0147,-1.48293 -1.35092,-1.48293 -2.146,0 -3.47881,-1.44872 -2.1107,-2.29426 0.48841,-0.30186 1.153,-0.12006 1.47687,0.40397 1.43339,2.31927 2.5758,0.77181 2.09217,-2.83398 -0.86801,-6.47151 -4.16297,-8.62827 -6.03086,-3.94761 -0.99923,2.50392 -1.01372,2.48622 -0.50325,-0.61518 l 0.52559,-3.19331 -3.60606,0.58518 c -4.81362,0.78115 -7.10432,3.28278 -7.67962,8.38676 -0.63122,5.60019 0.75844,6.18022 4.89537,2.04329 1.98029,-1.98029 3.94745,-3.16871 4.74101,-2.86419 2.46913,0.9475 1.41074,2.89889 -2.62802,4.84542 -4.48197,2.16014 -5.13575,4.23536 -1.64063,5.20757 3.77696,1.0506 5.54727,0.92719 8.48406,-0.59148 z m -6.60906,-1.7956 c 0,-0.80387 0.42188,-1.46158 0.9375,-1.46158 0.51563,0 0.9375,0.39697 0.9375,0.88217 0,0.48519 -0.42187,1.14291 -0.9375,1.46158 -0.51562,0.31867 -0.9375,-0.0783 -0.9375,-0.88217 z m -5.15625,-8.02408 c -0.31868,-0.51563 -0.15753,-0.9375 0.3581,-0.9375 0.51562,0 1.19822,0.42187 1.5169,0.9375 0.31868,0.51562 0.15753,0.9375 -0.3581,0.9375 -0.51562,0 -1.19822,-0.42188 -1.5169,-0.9375 z m 10.44222,-0.46875 c 0.2968,-0.77344 1.17896,-1.40625 1.96037,-1.40625 1.15659,0 1.20375,0.26146 0.25366,1.40625 -0.6419,0.77344 -1.52407,1.40625 -1.96037,1.40625 -0.4363,0 -0.55045,-0.63281 -0.25366,-1.40625 z m -6.14945,-2.89062 c 0.045,-1.09214 0.26713,-1.31428 0.5664,-0.56641 0.27081,0.67675 0.23751,1.48535 -0.074,1.79688 -0.31153,0.31152 -0.5331,-0.2422 -0.4924,-1.23047 z m 25.76242,13.20249 c 1.78211,-1.37772 1.77146,-1.44772 -0.51396,-3.37885 l -2.33377,-1.97198 -0.61965,2.20698 c -0.66041,2.35214 -1.01489,1.97692 -1.01489,-1.07427 0,-3.68693 0.24009,-3.8611 2.67851,-1.94304 3.8736,3.04697 5.27451,2.57552 4.67296,-1.57259 -0.28041,-1.93359 -0.52576,-4.04296 -0.54523,-4.6875 -0.0803,-2.65591 -3.7553,-4.92187 -7.98255,-4.92187 -5.11246,0 -6.83214,2.078 -7.686,9.28746 -0.49913,4.21433 -0.29315,5.13488 1.5998,7.14983 2.55226,2.71676 8.78093,3.19716 11.74478,0.90583 z m -8.96144,-3.28062 c 0,-0.51563 0.42187,-0.9375 0.9375,-0.9375 0.51562,0 0.9375,-0.70313 0.9375,-1.5625 0,-0.85937 0.24946,-1.31305 0.55435,-1.00815 0.78208,0.78208 -0.49938,4.44565 -1.55503,4.44565 -0.48087,0 -0.87432,-0.42188 -0.87432,-0.9375 z m -2.8125,-3.75 c 0,-0.51563 0.42187,-0.9375 0.9375,-0.9375 0.51562,0 0.9375,0.42187 0.9375,0.9375 0,0.51562 -0.42188,0.9375 -0.9375,0.9375 -0.51563,0 -0.9375,-0.42188 -0.9375,-0.9375 z m 11.07422,-0.64042 c 0.67675,-0.27081 1.48535,-0.23751 1.79688,0.074 0.31152,0.31152 -0.2422,0.5331 -1.23047,0.4924 -1.09214,-0.045 -1.31428,-0.26713 -0.56641,-0.5664 z m -9.53825,-3.57833 c -0.29679,-0.77344 -0.18264,-1.40625 0.25366,-1.40625 0.4363,0 1.31847,0.63281 1.96037,1.40625 0.95009,1.14479 0.90292,1.40625 -0.25366,1.40625 -0.78141,0 -1.66357,-0.63281 -1.96037,-1.40625 z m 7.83903,-0.49817 c 0,-0.49944 0.63281,-0.90808 1.40625,-0.90808 0.77344,0 1.40625,0.16581 1.40625,0.36845 0,0.20265 -0.63281,0.61127 -1.40625,0.90808 -0.77344,0.29679 -1.40625,0.13099 -1.40625,-0.36845 z m -3.25198,-1.18289 c -0.40131,-0.92458 -0.4666,-1.94411 -0.14509,-2.26562 0.95202,-0.95203 1.71946,0.38526 1.28128,2.23268 -0.38845,1.63776 -0.43899,1.63923 -1.13619,0.0329 z M 119.0625,855 c 0,-0.51563 -0.42187,-0.9375 -0.9375,-0.9375 -0.51562,0 -0.9375,0.42187 -0.9375,0.9375 0,0.51562 0.42188,0.9375 0.9375,0.9375 0.51563,0 0.9375,-0.42188 0.9375,-0.9375 z m 102.88879,95.25609 c -1.5362,-1.16606 -1.48243,-1.40681 0.83096,-3.72018 1.36039,-1.36041 3.01356,-2.47341 3.67372,-2.47341 0.66015,0 1.34835,-0.44419 1.52931,-0.98709 0.34768,-1.04307 6.34668,-2.70282 9.90534,-2.7405 1.7924,-0.0188 2.10938,0.47371 2.10938,3.2789 0,3.56869 0.11345,3.48675 -8.90625,6.42891 -5.5954,1.82522 -6.97661,1.85747 -9.14246,0.21337 z M 40.78125,945.06422 c -1.03125,-0.42919 -2.678666,-1.674 -3.660926,-2.7661 -0.982259,-1.09209 -2.33239,-1.98562 -3.00029,-1.98562 -0.667901,0 -1.615784,-0.71728 -2.106408,-1.59403 -1.20622,-2.15536 -8.737233,-2.12879 -10.904529,0.0384 -2.4259,2.42587 -4.091481,1.86281 -4.741663,-1.60295 -1.167498,-6.2233 -0.449896,-7.47768 4.963312,-8.67596 8.102346,-1.79356 14.882741,0.44411 22.43244,7.40318 l 4.173762,3.84726 -0.66066,-2.7549 c -1.380026,-5.75456 -4.199069,-8.70646 -8.88036,-9.29892 -1.712127,-0.21668 -3.497394,-1.08091 -3.967261,-1.92052 -0.711735,-1.27179 -2.321625,-1.48385 -9.64675,-1.27064 -4.835844,0.14076 -9.073291,-0.0249 -9.416546,-0.36819 -1.14029,-1.14029 1.680078,-8.94863 4.030373,-11.15831 2.034046,-1.91235 3.241848,-2.17436 9.974887,-2.16392 12.925059,0.0201 16.245135,0.97269 19.846676,5.69456 2.768716,3.62997 3.969751,4.05368 3.769068,1.32967 -0.07578,-1.02858 -1.555737,-3.1361 -3.2888,-4.68337 -4.96609,-4.43372 -10.766232,-6.78651 -18.007507,-7.30462 l -6.546026,-0.46836 2.662353,-2.23079 c 4.961448,-4.15711 10.494327,-7.81763 11.816472,-7.81763 1.786817,0 11.640072,6.98553 15.727077,11.14981 1.825282,1.85979 4.308515,4.16479 5.518297,5.12221 1.299624,1.02852 1.803824,1.98748 1.232295,2.34375 -0.53202,0.33164 -2.863874,4.38174 -5.181897,9.00024 -3.036108,6.04922 -4.014437,8.93279 -3.498786,10.3125 0.895589,2.39628 -0.261498,5.54965 -3.408867,9.29008 -2.523005,2.99841 -5.890932,3.92279 -9.229736,2.53313 z m 166.25951,-8.26735 c -0.0807,-0.38671 -0.27732,-1.75781 -0.43692,-3.04687 -0.1596,-1.28906 -0.68374,-4.21333 -1.16476,-6.49837 -0.48102,-2.28504 -0.64348,-4.75684 -0.36103,-5.49289 1.48222,-3.86261 9.25841,-9.64046 16.17195,-12.01606 2.83594,-0.97448 5.65888,-2.40507 6.27322,-3.1791 1.47232,-1.85506 3.55323,-0.59832 7.48284,4.51915 3.45851,4.50398 5.9709,13.62781 4.23157,15.36714 -0.80799,0.80799 -1.6463,0.76886 -3.37756,-0.15768 -1.85351,-0.99198 -3.18334,-1.01095 -6.81582,-0.0972 -6.00292,1.51 -15.14396,6.45411 -16.90663,9.14428 -1.32759,2.02617 -4.7726,3.01133 -5.09686,1.45761 z m -5.48404,-17.34375 c -0.003,-0.64453 -0.62893,-2.36664 -1.39055,-3.82691 -2.59978,-4.98454 1.82411,-10.39058 13.26499,-16.20994 l 6.71241,-3.41424 2.66259,1.8978 c 4.52367,3.22432 6.25869,5.54077 4.83303,6.45264 -1.79729,1.14956 -7.56751,3.11649 -9.20169,3.13663 -0.77344,0.01 -4.63837,2.96901 -8.58874,6.57662 -7.45603,6.8091 -8.28238,7.34598 -8.29204,5.3874 z M 61.685226,908.65732 c -2.623012,-4.44042 -5.913357,-7.4228 -9.492416,-8.604 -1.893545,-0.62492 -3.44281,-1.42873 -3.44281,-1.78623 0,-0.3575 -1.898438,-1.68706 -4.21875,-2.95459 -2.320313,-1.26753 -4.21875,-2.35325 -4.21875,-2.41271 0,-0.0594 2.280935,-2.46311 5.068743,-5.34143 l 5.068743,-5.2333 2.196882,2.9015 c 2.368783,3.12854 2.719708,3.46644 6.711968,6.46292 2.909822,2.18404 7.146942,8.39446 7.705304,11.2938 0.196377,1.0197 0.600038,2.61959 0.897027,3.55532 0.569727,1.79506 -1.663152,4.7114 -3.607249,4.7114 -0.625435,0 -1.826347,-1.16671 -2.668692,-2.59268 z m 127.357444,-3.74908 c -0.29916,-0.48407 -2.56162,-1.63611 -5.02768,-2.56009 -2.46606,-0.92398 -4.62032,-1.79111 -4.78725,-1.92693 -0.16692,-0.13584 0.3412,-1.49368 1.12916,-3.01743 1.15181,-2.22736 2.21762,-2.87573 5.43699,-3.30755 5.39511,-0.72363 6.71722,0.50866 6.13049,5.71405 -0.47413,4.20645 -1.88744,6.70671 -2.88171,5.09795 z M 77.423678,900.72378 c -1.58335,-7.75465 -1.139791,-8.81489 2.263822,-5.41128 2.390113,2.39011 2.400273,5.27791 0.02304,6.55016 -1.563099,0.83655 -1.919791,0.65892 -2.286867,-1.13888 z M 225.90428,836.01562 c -2.54133,-4.11725 -2.5258,-4.00393 -3.73229,-27.21959 -0.6883,-13.24449 -0.82954,-33.50969 -0.40183,-57.65625 0.39347,-22.21394 0.23996,-51.79335 -0.38057,-73.32728 -0.57203,-19.85156 -1.28243,-46.85156 -1.57866,-60 -0.29622,-13.14844 -0.94879,-29.8125 -1.45015,-37.03125 -0.50135,-7.21875 -1.31344,-20.71875 -1.80465,-30 -0.49121,-9.28125 -1.11586,-18.77344 -1.38812,-21.09375 -0.27226,-2.32031 -0.17093,-8.01563 0.22517,-12.65625 0.46289,-5.42309 0.32317,-11.11698 -0.39107,-15.9375 -0.6112,-4.125 -1.14296,-11.61328 -1.18168,-16.64063 l -0.0704,-9.14062 -10.07813,0.0168 c -5.54296,0.009 -13.875,0.60324 -18.51562,1.31999 -12.27038,1.89517 -15.42651,3.41545 -14.12603,6.80445 0.50811,1.32412 0.78313,1.29732 2.48406,-0.242 1.5659,-1.41711 2.05657,-1.49816 2.70622,-0.447 1.873,3.03059 -2.09495,6.24436 -5.91603,4.7916 -3.30779,-1.25762 -4.23025,-6.03131 -1.79892,-9.30933 3.14455,-4.23963 11.09469,-6.34924 30.18199,-8.00892 9.41275,-0.81842 17.74099,-1.48807 18.5072,-1.48807 1.16288,0 1.30253,-1.25398 0.84502,-7.58779 -0.30146,-4.17328 -0.73866,-8.4975 -0.97155,-9.60937 -2.62688,-12.54088 -2.01205,-49.24404 1.00234,-59.83676 0.27169,-0.95475 -1.19711,-3.41455 -3.76616,-6.30716 -6.88854,-7.75613 -7.15631,-16.01151 -0.74495,-22.96702 2.05017,-2.22418 4.02253,-4.97328 4.38304,-6.10913 0.72224,-2.27558 4.37722,-4.08295 6.56166,-3.24469 0.76748,0.2945 2.28212,1.97017 3.36585,3.72369 1.08374,1.75353 2.33872,3.18823 2.78885,3.18823 0.88056,0 4.10777,3.18073 6.76304,6.66563 3.66494,4.81004 1.17984,15.21304 -4.52791,18.95457 -3.8734,2.53907 -4.30904,5.29569 -2.3861,15.09837 1.64412,8.38131 2.06954,38.00662 0.81041,56.43514 -0.7049,10.31687 -0.68899,10.44154 1.40625,11.01722 1.16557,0.32024 9.67535,1.25118 18.91061,2.06877 18.7461,1.65956 26.74144,3.80366 29.85931,8.00733 3.86449,5.21026 -1.26179,12.19663 -6.45335,8.79497 -1.22573,-0.80312 -2.2286,-2.05841 -2.2286,-2.78954 0,-2.2122 2.07733,-2.77621 3.42698,-0.93045 0.94161,1.28772 1.53972,1.46129 2.32602,0.67499 1.54511,-1.54511 0.30317,-3.87648 -2.6821,-5.03483 -4.69158,-1.82043 -19.28283,-3.61571 -29.52626,-3.63285 l -10.04912,-0.0168 -0.1636,31.17187 c -0.18465,35.18303 -0.18434,59.50032 9.4e-4,104.29688 0.0705,17.01562 -0.12665,43.17187 -0.43815,58.125 -0.31151,14.95312 -0.75779,49.54687 -0.99177,76.875 -0.47605,55.60437 -1.60498,88.51313 -3.13444,91.37097 -1.47785,2.76139 -3.52395,2.35175 -5.6771,-1.1366 z m -55.6245,-88.8096 c -3.27326,-4.94624 -8.92427,-7.79257 -16.06103,-8.08973 -3.09375,-0.12881 -6.30175,-0.26392 -7.12889,-0.30025 -1.29228,-0.0567 -1.44814,-1.22032 -1.10766,-8.26917 0.21793,-4.51171 1.03557,-13.05468 1.81697,-18.98437 0.7814,-5.92969 1.61235,-12.25781 1.84656,-14.0625 1.32891,-10.23982 0.9961,-9.67966 5.34087,-8.98933 2.15581,0.34253 6.4509,1.1663 9.54465,1.83058 l 5.625,1.2078 0.18805,7.4286 c 0.10343,4.08573 0.62818,11.85829 1.16612,17.27235 0.9944,10.00799 2.09032,34.6875 1.54034,34.6875 -0.16588,0 -1.41282,-1.67917 -2.77098,-3.73148 z m 4.0768,-17.06341 c -0.71464,-10.47688 -1.31925,-23.45917 -1.34358,-28.84954 l -0.0443,-9.80068 3.79457,-1.10048 c 2.08701,-0.60526 5.53322,-1.39421 7.65823,-1.75323 l 3.86365,-0.65276 0.61922,5.46016 c 0.63639,5.61154 1.6927,11.11582 5.08325,26.48778 2.70793,12.27719 2.62596,14.12324 -0.62829,14.14923 -3.61228,0.0289 -10.00636,3.11135 -11.90654,5.73999 -0.87793,1.2145 -2.54138,3.81922 -3.69658,5.78828 l -2.10033,3.5801 -1.29935,-19.04885 z m -97.213211,-9.17442 c 0.295299,-15.10353 0.883065,-27.77297 1.306144,-28.1543 0.42308,-0.38134 4.566112,-1.38163 9.206737,-2.22289 4.640625,-0.84125 9.392991,-1.79109 10.560806,-2.11076 1.693003,-0.46343 2.004964,-0.27282 1.539366,0.94052 -0.537872,1.40167 1.026408,12.31557 2.232948,15.57924 0.28594,0.77344 0.62187,2.25 0.74654,3.28125 0.12466,1.03125 0.87558,5.29241 1.66872,9.46924 0.79315,4.17683 1.29967,8.81746 1.12562,10.3125 -0.17406,1.49505 -0.36799,4.40576 -0.43097,6.46826 l -0.1145,3.75 -5.091896,0.14578 c -6.310472,0.18068 -14.814708,3.25316 -19.636529,7.09445 l -3.649894,2.90768 0.536908,-27.46097 z m -7.832086,21.61383 c -3.813574,-3.87094 -4.778636,-4.36848 -8.814029,-4.54411 -2.492359,-0.10847 -4.766448,-0.4321 -5.053532,-0.71919 -1.427513,-1.42751 -0.0024,-17.02087 2.693094,-29.46831 1.623592,-7.49741 3.136917,-14.58088 3.362946,-15.74104 0.473159,-2.42863 2.932553,-2.648 9.664082,-0.86205 l 4.132594,1.09643 -0.2276,19.6875 c -0.22983,19.88045 -0.734638,34.30242 -1.21417,34.68791 -0.143505,0.11536 -2.188028,-1.74634 -4.543385,-4.13714 z m 95.488997,-55.44057 c -3.92361,-2.07193 -16.65085,-4.13071 -20.62374,-3.33613 -2.39176,0.47835 -2.61404,0.28565 -2.61404,-2.26626 0,-2.53229 0.28583,-2.78906 3.10468,-2.78906 1.70758,0 6.24274,0.80508 10.07813,1.78906 3.83539,0.98398 8.7642,2.07537 10.9529,2.42532 4.46336,0.71364 5.31515,1.52262 4.45538,4.23151 -0.71918,2.26592 -0.96396,2.26343 -5.35331,-0.0545 z M 172.5,686.13954 c 0,-2.12689 0.59093,-2.74803 3.51562,-3.69535 1.9336,-0.62629 5.54396,-1.9281 8.02304,-2.89292 l 4.5074,-1.7542 -0.28865,3.95353 -0.28866,3.95353 -7.73438,1.49603 -7.73437,1.49602 0,-2.55664 z M 67.734375,686.4947 C 63.28462,685.37569 61.875,684.61847 61.875,683.34718 c 0,-2.52419 1.047858,-2.72618 6.134047,-1.18244 6.141014,1.8639 7.400916,2.58129 7.762819,4.42012 0.361692,1.83776 -0.405278,1.82916 -8.037491,-0.0902 z m 10.078125,-0.085 c 0,-1.20426 0.853561,-1.98425 2.578125,-2.35593 1.417969,-0.30561 7.377638,-1.59023 13.24371,-2.85472 11.225185,-2.41969 13.240665,-2.36436 13.240665,0.36348 0,2.03781 -1.81271,2.8125 -6.581,2.8125 -1.988331,0 -6.27805,0.59159 -9.5327,1.31465 -11.955123,2.65596 -12.9488,2.71122 -12.9488,0.72002 z m -9.08863,-5.89613 c -7.229435,-1.97762 -7.78637,-2.32567 -7.78637,-4.86609 0,-1.12993 -0.625487,-5.00737 -1.389971,-8.61655 -2.392463,-11.29498 -1.547872,-33.96024 1.299051,-34.86109 2.548587,-0.80645 10.761835,-4.09057 12.980132,-5.1902 3.526291,-1.74801 3.455442,-0.0971 -0.177982,4.14743 -1.897014,2.21607 -4.794811,6.76264 -6.439548,10.1035 -2.647213,5.37712 -2.984181,6.95441 -2.93597,13.74274 0.05431,7.64632 0.07011,7.6943 5.477935,16.63253 2.98291,4.93025 5.278714,9.30884 5.101787,9.73021 -0.176926,0.42137 -2.935005,0.0513 -6.129064,-0.82248 z m 6.257421,-3.89187 c -8.55493,-15.99083 -8.854883,-16.75314 -8.725267,-22.17448 0.16993,-7.10752 2.971246,-13.95235 8.915973,-21.78559 4.800174,-6.3251 5.105436,-6.54834 8.265503,-6.0449 1.804687,0.28752 7.583733,2.22106 12.842325,4.29678 5.258585,2.07571 9.955485,3.77402 10.437535,3.77402 1.02415,0 2.00157,3.19835 2.01984,6.60937 0.007,1.31485 0.45671,2.83454 0.99927,3.3771 1.06908,1.06908 -0.0807,14.51453 -2.18504,25.55085 l -1.14518,6.00607 -12.1875,2.64337 c -6.703125,1.45385 -13.070713,2.85587 -14.150196,3.1156 -1.625658,0.39114 -2.499252,-0.53069 -5.087263,-5.36819 z m 83.456209,2.52996 c -5.41406,-1.20541 -11.55969,-2.4685 -13.65696,-2.80686 l -3.8132,-0.61521 -1.2404,-10.91165 c -1.31729,-11.58815 -2.00486,-28.17588 -1.28242,-30.93852 0.69106,-2.64263 23.91756,-9.74865 28.80828,-8.81373 2.36466,0.45203 6.97872,7.02474 11.66759,16.62046 3.13194,6.40945 3.7645,17.03897 1.37017,23.02425 -2.83814,7.09469 -9.00009,16.86105 -10.56348,16.74253 -0.79521,-0.0603 -5.87552,-1.09586 -11.28958,-2.30127 z m 20.78663,-7.07028 c 3.99397,-7.74023 4.05712,-8.00927 4.05712,-17.28656 0,-8.86561 -0.19194,-9.80987 -3.23967,-15.9375 -1.78182,-3.58245 -4.454,-8.09557 -5.93816,-10.02917 -1.48416,-1.93359 -2.53208,-3.51562 -2.32871,-3.51562 0.97796,0 11.89046,4.62873 14.78779,6.27249 l 3.28125,1.8616 -0.0246,11.16733 c -0.0417,18.95353 -0.62296,30.38591 -1.57485,30.97421 -0.50108,0.30969 -2.87744,1.10049 -5.28082,1.75735 -2.40337,0.65687 -5.14079,1.51024 -6.08314,1.89638 -1.32643,0.54351 -0.79711,-1.07361 2.34375,-7.16051 z M 103.125,631.29567 c -1.80469,-0.79388 -7.840838,-2.92394 -13.41367,-4.73345 -9.737192,-3.1617 -10.12116,-3.38737 -9.84375,-5.7855 0.342962,-2.9648 -0.495602,-3.08104 12.94492,1.7944 5.929687,2.15094 11.73047,4.11874 12.89063,4.37288 1.59296,0.34896 2.10937,1.12388 2.10937,3.16529 0,3.09285 -0.2245,3.14968 -4.6875,1.18638 z m -44.0625,-3.15281 c 0,-2.29539 0.460563,-2.88918 2.578125,-3.32387 6.356761,-1.30492 10.211429,-2.65648 12.330735,-4.32352 2.479822,-1.95063 4.237196,-1.19816 3.694684,1.58199 -0.199854,1.02416 -2.107256,2.25801 -5.020753,3.2478 -2.584153,0.87789 -6.46969,2.49979 -8.634527,3.60421 -2.164837,1.10441 -4.163812,2.00803 -4.442166,2.00803 -0.278354,0 -0.506098,-1.25759 -0.506098,-2.79464 z m 78.44782,1.24245 c -2.47721,-2.47719 0.63972,-3.84891 19.73046,-8.68309 9.51774,-2.4101 11.74939,-2.48485 11.34358,-0.38 -0.2263,1.1738 -3.62912,2.43467 -13.42811,4.97563 -7.21875,1.87187 -13.99927,3.70026 -15.06781,4.06308 -1.06855,0.36284 -2.22871,0.3738 -2.57812,0.0244 z m 41.78655,-3.35728 c -6.09927,-2.70531 -8.67187,-4.3261 -8.67187,-5.46347 0,-1.35684 0.49037,-1.49359 3.04687,-0.84967 6.52973,1.64469 10.58453,2.99531 11.4375,3.80973 0.48985,0.46771 1.86094,0.85038 3.04688,0.85038 1.77083,0 2.15625,0.50272 2.15625,2.8125 0,1.65849 -0.48083,2.78673 -1.17188,2.7497 -0.64453,-0.0345 -5.07421,-1.79367 -9.84375,-3.90917 z m -78.51562,-5.48576 c -2.578125,-0.9786 -7.640625,-2.47776 -11.25,-3.33148 -3.609375,-0.85371 -7.176043,-1.87087 -7.925929,-2.26034 -1.662598,-0.86352 -1.511677,-11.65543 0.766276,-54.7942 l 1.534653,-29.0625 18.28125,0.3412 c 10.05469,0.18767 18.46275,0.5098 18.68457,0.71583 0.22183,0.20604 -0.12483,4.06031 -0.77034,8.56505 -0.64552,4.50473 -1.94327,13.67479 -2.88388,20.37792 -2.05998,14.67999 -5.22553,34.74621 -7.09899,45 -0.75367,4.125 -1.36999,9.50391 -1.36959,11.95312 8.4e-4,5.16128 -0.51726,5.32353 -7.96802,2.4954 z m -43.620939,-7.71722 c -1.792097,-7.56057 -3.759965,-16.63027 -5.223599,-24.07505 -0.253428,-1.28906 -0.82664,-3.60938 -1.273803,-5.15625 -0.447163,-1.54688 -1.462256,-6.82031 -2.255761,-11.71875 -0.793505,-4.89844 -2.509907,-14.8125 -3.814226,-22.03125 -1.304318,-7.21875 -2.379123,-15.12891 -2.388455,-17.57813 -0.01586,-4.16282 0.140248,-4.45312 2.394672,-4.45312 3.843206,0 36.456799,2.93093 36.836286,3.31042 0.188953,0.18896 -0.145999,7.85344 -0.744337,17.0322 -1.024746,15.72001 -2.613183,48.11825 -2.985726,60.89776 -0.198889,6.82258 0.402127,6.35517 -14.120847,10.98178 l -4.384234,1.39669 -2.03997,-8.6063 z m 80.250109,7.90782 c -0.33753,-0.54614 -1.01233,-4.5012 -1.49955,-8.78904 -0.48721,-4.28782 -1.73522,-11.1171 -2.77335,-15.17615 -1.03814,-4.05906 -1.88752,-9.20505 -1.88752,-11.43554 0,-3.91647 -2.2957,-20.40362 -5.13728,-36.89464 -0.75521,-4.38281 -1.6341,-9.90891 -1.95311,-12.2802 l -0.58001,-4.31145 19.53833,-0.66526 c 10.74607,-0.36589 20.48754,-0.89725 21.64769,-1.18081 2.07208,-0.50643 2.11004,-0.36041 2.14661,8.25796 0.0204,4.82543 0.22469,11.09382 0.45382,13.92976 0.22914,2.83594 0.50723,18.02344 0.61797,33.75 l 0.20135,28.59375 -2.76455,0.30122 c -2.28639,0.24912 -17.65852,4.07055 -25.39314,6.3126 -1.10196,0.31942 -2.27974,0.13394 -2.61726,-0.4122 z m 51.02708,0.20176 c -0.77344,-0.26391 -3.09375,-1.22734 -5.15625,-2.14095 -2.0625,-0.9136 -5.4375,-2.1919 -7.5,-2.84065 -2.0625,-0.64875 -4.03989,-1.44497 -4.39421,-1.76941 -0.35431,-0.32443 -0.89095,-15.77737 -1.19252,-34.33987 -0.30157,-18.5625 -0.75491,-36.91406 -1.00743,-40.78125 -0.25252,-3.86719 -0.13777,-7.47771 0.25502,-8.02337 0.85643,-1.18981 33.68279,-6.66423 34.58013,-5.7669 0.57649,0.5765 -0.18919,6.3357 -5.38563,40.50902 -2.19135,14.41095 -3.04129,19.67494 -5.60076,34.6875 -1.0549,6.1875 -1.96344,13.46484 -2.01898,16.17187 -0.0555,2.70704 -0.3422,4.88857 -0.63705,4.84786 -0.29483,-0.0407 -1.16888,-0.28994 -1.94232,-0.55385 z M 101.71875,528.68409 C 94.5,528.31844 82.476562,527.74246 75,527.40414 55.207372,526.50851 41.139804,525.2705 38.248027,524.16979 c -4.635354,-1.76439 -5.718201,-5.60861 -5.551574,-19.70867 0.08202,-6.94056 0.336396,-12.80647 0.56528,-13.03536 0.228884,-0.22888 2.225347,0.43327 4.436585,1.47143 8.104344,3.80496 38.725334,8.42568 61.676682,9.30703 13.68556,0.52554 14.79853,0.43621 19.12381,-1.53505 4.81996,-2.19671 4.64258,-2.2193 10.87619,1.38538 3.24461,1.87624 26.68627,1.83148 40.51464,-0.0774 13.37177,-1.84582 30.31385,-5.58476 34.14421,-7.53526 5.2269,-2.66164 9.10011,1.36276 8.47587,8.80676 -0.16005,1.90855 -0.0385,6.36319 0.27003,9.89921 0.54462,6.2409 0.49155,6.45566 -1.81248,7.33592 -1.30544,0.49875 -3.42821,1.05854 -4.71727,1.24399 -1.28906,0.18544 -7.19531,1.17063 -13.125,2.1893 -10.39634,1.78601 -19.67313,2.87106 -29.53125,3.45408 -2.57813,0.15247 -8.69531,0.54242 -13.59375,0.86655 -14.66993,0.97072 -34.33977,1.15257 -48.28125,0.44638 z m 34.21875,-30.05823 c -3.86719,-0.5103 -8.85047,-1.83371 -11.07397,-2.9409 -2.43136,-1.21071 -4.2997,-1.65299 -4.6875,-1.10965 -2.63347,3.68987 -18.00579,4.16757 -43.547136,1.35326 -18.735717,-2.06445 -22.450593,-2.7427 -34.777895,-6.34972 l -8.30525,-2.43015 0.528714,-3.80873 c 2.246428,-16.18271 1.781514,-15.00347 5.215136,-13.22789 4.641357,2.40014 23.308991,6.77369 36.656122,8.588 7.492418,1.01845 18.443851,1.72933 26.866649,1.74397 13.15759,0.0229 14.42473,-0.1277 16.98055,-2.01749 l 2.76194,-2.04221 3.5291,2.51096 c 3.51507,2.50096 3.59826,2.51113 20.92037,2.5579 l 17.39125,0.047 1.08389,3.23429 c 1.65087,4.92621 7.37875,7.11061 11.24063,4.28674 1.19361,-0.8728 1.79709,-2.5323 1.86202,-5.12035 0.0529,-2.10597 0.288,-4.00023 0.5226,-4.20945 0.2346,-0.20922 2.95778,-0.65045 6.05153,-0.98053 l 5.625,-0.60012 5.04654,4.66305 c 2.77559,2.56468 5.92526,5.24649 6.99924,5.95959 1.94678,1.29262 1.94699,1.29959 0.0691,2.30462 -3.59914,1.92621 -23.43035,5.82791 -34.61484,6.81033 -18.21266,1.59975 -24.89519,1.7604 -32.34375,0.77752 z m 72.1875,-12.25962 c -1.80469,-1.5819 -4.57363,-4.02192 -6.15322,-5.42228 -1.57958,-1.40035 -3.47802,-2.78513 -4.21875,-3.07727 -0.74072,-0.29214 1.00007,-0.56447 3.86845,-0.60517 4.57028,-0.0649 5.53461,0.25936 7.79793,2.62174 2.0174,2.10572 2.51748,3.42499 2.28477,6.02745 l -0.29793,3.3317 -3.28125,-2.87617 z m -71.25,-9.17874 c -6.75802,-0.32181 -10.75505,-0.96793 -12.75085,-2.06117 -2.45788,-1.34635 -3.18222,-1.40019 -4.6875,-0.34842 -2.99742,2.09436 -9.54552,2.46202 -25.210869,1.41556 -20.279965,-1.35474 -44.224283,-6.02038 -53.660647,-10.45599 l -4.204229,-1.97623 0.588992,-4.77125 c 0.323946,-2.62419 1.074991,-6.74831 1.66899,-9.1647 l 1.079996,-4.39347 2.884934,1.50495 c 2.836881,1.47989 19.876763,6.45752 25.384933,7.41536 1.546875,0.26899 8.13963,1.49854 14.650567,2.73234 6.510936,1.2338 16.449177,2.52332 22.084963,2.86561 l 10.24692,0.62236 3.43178,-3.01315 3.43179,-3.01316 3.2301,2.46372 c 2.59599,1.98005 4.8218,2.62793 11.33813,3.30024 4.45942,0.46009 8.60926,0.64996 9.22189,0.42194 0.61263,-0.22803 5.54355,-0.79769 10.95761,-1.26591 10.51968,-0.90978 11.09362,-0.77404 15.97915,3.77938 1.31197,1.22278 3.72402,3.34461 5.36012,4.71517 l 2.97473,2.49194 -4.71183,1.13035 c -2.5915,0.62169 -5.85939,2.09595 -7.26195,3.27614 -2.23136,1.87757 -3.7772,2.18649 -12.36705,2.47146 -5.39931,0.17912 -14.24661,0.11474 -19.66067,-0.14307 z m 42.7742,-14.37518 c -12.27637,-10.51649 -15.70791,-13.38029 -22.07353,-18.42151 -3.30994,-2.6213 -8.1615,-6.72316 -10.78125,-9.11526 -5.82872,-5.32222 -40.01128,-33.97123 -51.076111,-42.80781 -4.434133,-3.54118 -8.272997,-6.71393 -8.530809,-7.05056 -0.257813,-0.33663 -5.458235,-4.56976 -11.556494,-9.40696 -9.198348,-7.29621 -10.997759,-9.13009 -10.559677,-10.76194 0.290438,-1.08186 0.533829,-2.28344 0.540869,-2.67016 0.03485,-1.91405 2.803918,-0.0767 9.441473,6.26483 4.011301,3.83238 10.386306,9.33398 14.166677,12.22579 3.780371,2.89181 10.272421,8.08826 14.426782,11.54767 11.9237,9.92908 18.53783,15.33795 24.31424,19.88359 2.94856,2.32031 6.39073,5.12889 7.64928,6.24129 1.25854,1.1124 4.04249,3.43272 6.18656,5.15625 2.14407,1.72354 4.56218,3.76652 5.37357,4.53996 1.57747,1.50366 16.54958,14.01808 33.15162,27.70975 12.5599,10.35813 13.7401,11.38434 13.7401,11.94733 0,0.24765 -1.52896,0.62878 -3.39768,0.84694 -3.08517,0.36018 -4.09836,-0.20357 -11.01562,-6.1292 z m 19.92691,2.46757 c -1.81295,-1.443 -5.27672,-4.36872 -7.69728,-6.5016 l -4.40102,-3.87796 3.52116,-0.66057 c 1.93665,-0.36332 5.97072,-1.65592 8.9646,-2.87244 3.8373,-1.55924 5.53279,-1.8798 5.74624,-1.08647 0.70787,2.63086 2.69502,13.46597 2.78546,15.1879 0.16292,3.10197 -4.91988,2.99435 -8.91916,-0.18886 z M 133.07856,455.625 c -3.55573,-0.27144 -7.1927,-1.15981 -8.64072,-2.11057 -2.40415,-1.57854 -2.6437,-1.56719 -6.21559,0.29459 -3.54243,1.84641 -4.36268,1.89091 -17.64965,0.95756 -7.664003,-0.53836 -15.182022,-1.3897 -16.706703,-1.89185 C 82.341217,452.37258 75.1875,450.85836 67.96875,449.5098 60.75,448.16123 54,446.68776 52.96875,446.23541 51.9375,445.78306 48.878906,444.49465 46.171875,443.37228 43.464844,442.24991 41.25,440.85606 41.25,440.27483 c 0,-1.8704 2.59894,-13.54583 3.249663,-14.59872 0.435602,-0.70482 1.403335,-0.58234 3.14299,0.39776 12.295352,6.92708 42.532209,13.19477 60.473567,12.53536 7.80788,-0.28697 9.21491,-0.60178 11.25279,-2.51768 1.87554,-1.7633 2.68996,-1.99657 4.18224,-1.19792 1.01924,0.54549 2.10049,1.63631 2.40278,2.42408 0.6294,1.64017 9.88462,2.0529 12.66519,0.56478 1.19146,-0.63765 2.60583,-0.20295 5.33802,1.64063 4.74291,3.20032 19.27707,15.36756 18.85784,15.78681 -0.5589,0.55889 -23.3759,0.80065 -29.73652,0.31507 z m 41.76519,-10.84217 c -4.125,-3.8928 -8.34375,-7.43325 -9.375,-7.86768 -2.33806,-0.98492 -2.11455,-1.06347 10.78125,-3.78919 8.25867,-1.7456 13.0741,-3.30307 22.16812,-7.16991 0.65934,-0.28035 1.80597,2.0121 2.96814,5.93419 3.5669,12.0375 3.71506,11.1557 -2.38904,14.21896 -4.27911,2.14741 -14.62577,5.79629 -16.32901,5.75863 -0.17845,-0.004 -3.69946,-3.1922 -7.82446,-7.085 z M 93.28125,433.6827 c -11.547986,-1.66379 -21.776061,-3.94036 -32.34375,-7.19908 -10.922218,-3.36804 -15.4369,-5.9059 -14.520572,-8.16253 0.357858,-0.88129 1.302448,-3.50078 2.09909,-5.82109 0.796641,-2.32031 1.826062,-5.29895 2.287602,-6.6192 l 0.839163,-2.40044 5.980462,3.00995 c 8.763044,4.41041 33.149446,9.54079 49.605665,10.43597 9.76264,0.53106 10.36251,0.68687 14.0625,3.65264 2.12566,1.70385 6.78095,5.3292 10.34508,8.05636 l 6.48025,4.95847 -5.26685,0.27992 c -3.49991,0.18602 -6.25275,-0.2299 -8.2056,-1.23976 -2.64215,-1.36631 -3.29223,-1.37826 -6.44096,-0.11839 -5.16865,2.06809 -15.35724,2.54525 -24.92208,1.16718 z m 57.11348,-8.72427 c -9.42882,-8.24325 -9.50666,-8.03887 3.66816,-9.63168 12.17206,-1.47158 30.051,-6.75915 35.45683,-10.48612 1.36866,-0.94359 2.88013,-1.71563 3.35882,-1.71563 0.47869,0 1.99978,3.64312 3.38022,8.09584 2.00942,6.48159 2.28184,8.37061 1.3662,9.47388 -1.59042,1.91635 -10.68061,5.85406 -15.74996,6.82261 -2.32031,0.44332 -7.38281,1.44824 -11.25,2.23314 -3.86719,0.7849 -8.15984,1.63746 -9.53922,1.89459 -2.09261,0.39008 -3.8632,-0.71732 -10.69105,-6.68663 z M 101.25,411.86042 c -4.986834,-0.51598 -26.623767,-4.20294 -27.410618,-4.67079 -0.380529,-0.22625 -3.024335,-1.01891 -5.875126,-1.76144 -6.79319,-1.76941 -14.526756,-5.73049 -14.526756,-7.44053 0,-0.74566 0.886764,-3.58621 1.970587,-6.31233 1.083822,-2.72612 2.342649,-5.91538 2.797393,-7.08726 l 0.826806,-2.13066 3.543741,2.23706 c 4.232659,2.67196 16.073914,6.76946 22.231224,7.69281 4.085426,0.61264 7.436641,2.7876 14.115658,9.16109 0.638541,0.60934 3.512251,3.00632 6.386021,5.32663 2.87376,2.32031 5.24551,4.53516 5.27055,4.92187 0.0451,0.69704 -3.00617,0.71782 -9.32948,0.0636 z m 30.88384,-2.43266 c -6.59477,-5.97502 -9.61662,-8.44048 -13.83337,-11.28633 l -4.28541,-2.8922 3.16359,-1.29088 c 2.37067,-0.96733 3.71945,-1.03762 5.38132,-0.28042 3.1923,1.45452 21.22365,1.27976 28.37753,-0.27502 13.19931,-2.86867 18.6998,-4.71371 28.85525,-9.67898 2.72194,-1.33082 5.05652,-2.25612 5.18795,-2.05619 0.13143,0.19994 0.80584,2.05101 1.4987,4.11351 0.69286,2.0625 2.04968,5.41127 3.01517,7.44172 2.42989,5.11011 2.25792,5.85757 -1.82712,7.94161 -7.85796,4.00882 -20.00595,7.34175 -36.2612,9.94865 -12.91016,2.07043 -15.36377,1.85585 -19.27241,-1.68547 z m -2.29009,-18.24465 c -2.0625,-0.20743 -4.65921,-1.22725 -5.77045,-2.26625 -1.8407,-1.72104 -2.21603,-1.76492 -4.21875,-0.49308 -1.20907,0.76782 -3.94932,1.67751 -6.08946,2.02153 -3.8393,0.61717 -4.03923,0.50443 -14.999999,-8.45739 -6.109863,-4.99558 -11.464676,-9.41033 -11.899585,-9.81053 -0.43491,-0.4002 2.518215,0.0568 6.5625,1.01548 9.377844,2.22303 14.099414,2.21418 22.790724,-0.0427 6.939,-1.80186 7.01488,-1.80172 8.7084,0.016 1.37939,1.48059 2.96458,1.83376 8.23094,1.83376 12.97188,0 35.43785,-6.26121 40.90923,-11.4013 l 2.05497,-1.93054 3.40713,6.76567 c 1.87393,3.72113 3.19097,7.32902 2.92676,8.01755 -2.47439,6.44815 -37.48976,16.25262 -52.61241,14.73173 z m -53.840753,-5.41553 c -2.284289,-0.71197 -4.463411,-1.10281 -4.842495,-0.86852 -0.379082,0.23429 -1.885119,-0.55973 -3.346747,-1.76449 -1.461628,-1.20475 -3.395786,-2.45996 -4.29813,-2.78934 -1.843275,-0.67286 -2.140618,-3.59675 -0.64917,-6.38355 0.932513,-1.74241 1.252987,-1.60277 5.390625,2.34899 2.419543,2.31085 6.192139,5.4952 8.383545,7.07632 3.25648,2.34959 4.979212,4.06671 3.75,3.73779 -0.128906,-0.0345 -2.103338,-0.64523 -4.387628,-1.3572 z m 16.497272,-16.93703 c -8.138044,-1.53171 -16.744052,-5.4539 -20.274453,-9.24008 -2.249018,-2.41195 -2.26527,-2.5347 -0.664153,-5.01584 0.902704,-1.39886 2.349514,-4.01994 3.215132,-5.82463 0.865618,-1.80469 1.684307,-3.4495 1.819308,-3.65515 0.135001,-0.20565 2.678761,0.91049 5.652802,2.4803 10.906855,5.75706 31.551925,9.56979 49.469845,9.13606 10.23837,-0.24783 23.29577,-3.66525 31.40273,-8.21883 l 4.13745,-2.32395 3.55804,4.96873 c 1.95691,2.7328 3.55803,5.37185 3.55803,5.86455 0,0.4927 -1.26562,1.42006 -2.8125,2.06079 -1.54687,0.64073 -2.8125,1.49803 -2.8125,1.9051 0,1.22277 -8.07828,4.74782 -15.2778,6.66665 -3.71439,0.98997 -11.4398,2.05732 -17.16755,2.37187 -9.96914,0.5475 -10.50531,0.48072 -12.54894,-1.56291 -2.11102,-2.11102 -2.16743,-2.1156 -5.05424,-0.41033 -3.85023,2.2744 -16.33579,2.6545 -26.201201,0.79767 z m 114.040801,-7.48033 c -3.39675,-1.48736 -10.77874,-9.0036 -14.53427,-14.79859 -1.38846,-2.14246 -3.39995,-5.02595 -4.46998,-6.40776 -1.27223,-1.6429 -1.5965,-2.7281 -0.93699,-3.13569 1.50293,-0.92887 5.24944,-9.49527 7.04447,-16.1072 1.87018,-6.88873 1.5403,-16.16742 -0.73588,-20.6986 l -1.54663,-3.07887 3.45973,0.64325 c 6.21761,1.15601 19.84709,7.52487 38.60774,18.04086 3.34702,1.87612 7.56577,3.8544 9.375,4.39617 l 3.28949,0.98503 -0.29849,5.10872 c -0.16417,2.80979 -0.94368,8.48371 -1.73224,12.60871 -0.78855,4.125 -1.64593,9.29297 -1.90528,11.48437 -0.572,4.83323 -0.94206,4.88191 -12.47024,1.64063 -4.58477,-1.28906 -9.11236,-2.34375 -10.06131,-2.34375 -1.77765,0 -8.68869,9.42505 -8.68869,11.84935 0,1.53404 -0.51697,1.5121 -4.39643,-0.18663 z m -98.72857,-8.42564 c -9.423347,-1.7486 -22.044113,-5.91777 -25.961422,-8.57612 -1.75139,-1.18853 -3.513946,-2.16096 -3.916792,-2.16096 -1.140009,0 -4.428444,-3.8992 -6.133769,-7.27301 -1.772436,-3.50658 -3.02105,-2.57632 10.439264,-7.7776 7.404094,-2.86106 9.842935,-3.37085 17.205963,-3.59661 3.103666,-0.0952 3.671376,-0.60632 7.663096,-6.89966 2.37111,-3.73828 6.45255,-9.08634 9.06988,-11.88459 2.61733,-2.79824 4.75878,-5.66231 4.75878,-6.3646 0,-0.70229 1.80544,0.95436 4.01208,3.68147 6.47018,7.99621 8.50354,11.15531 11.00194,17.09302 2.1895,5.2036 2.65784,5.69078 6.5625,6.82655 2.3126,0.67268 6.73598,1.26296 9.82973,1.31174 7.37051,0.11621 22.03125,4.99759 22.03125,7.33543 0,0.95979 -4.43659,6.51327 -6.55674,8.20737 -0.77661,0.62054 -4.78701,2.82919 -8.91201,4.9081 -5.76088,2.90336 -9.56521,4.08548 -16.40625,5.09791 -11.45942,1.69592 -25.77461,1.72545 -34.6875,0.0715 z M 2.3932796,343.17973 c -1.62921089,-1.80026 -1.75331227,-4.34714 -0.909131,-18.6577 l 0.5720102,-9.69671 2.9562956,0.50877 c 12.1778346,2.09578 15.1246656,1.56878 8.6070646,-1.53925 -4.0336696,-1.92352 -8.6994087,-8.20324 -9.4609134,-12.73365 -0.3147805,-1.87272 -0.7682724,-4.24869 -1.0077597,-5.27994 -0.4185384,-1.80226 -0.3816625,-1.80805 0.9505126,-0.14934 0.9490668,1.18169 2.0128651,1.52667 3.3747813,1.09442 2.3909849,-0.75887 4.7113602,0.93289 4.7113602,3.43501 0,2.59068 2.47182,7.00733 4.318259,7.71587 2.642648,1.01408 2.661108,-0.21603 0.04253,-2.83459 -1.367185,-1.3672 -2.485793,-2.81564 -2.485793,-3.21879 0,-4.01101 4.294678,-5.12163 5.240021,-1.35508 0.680195,2.71012 0.722824,2.72541 3.267297,1.17187 1.613878,-0.98534 2.113261,-0.91074 3.137507,0.46875 1.278729,1.72225 3.355175,2.22626 3.355175,0.8144 0,-0.45442 1.469184,-1.94683 3.264853,-3.31645 l 3.264853,-2.49023 -0.60294,3.08208 -0.60294,3.08208 2.884475,-3.06187 c 3.517838,-3.73418 7.452545,-5.45286 14.476957,-6.32356 l 5.341506,-0.66209 -1.825881,3.58136 c -1.004236,1.96975 -1.825883,4.67341 -1.825883,6.00813 0,1.33473 -0.372698,2.82756 -0.828217,3.3174 -0.455519,0.48985 -1.296317,3.63282 -1.868442,6.98438 -0.584974,3.42683 -1.878657,7.11949 -2.955997,8.4375 -1.053674,1.28906 -2.141179,3.00808 -2.416676,3.82004 -0.757726,2.23321 -6.089321,3.75711 -11.630551,3.32428 -4.496878,-0.35125 -5.061885,-0.65297 -6.173501,-3.29673 -1.822109,-4.33352 -3.189116,-3.55562 -3.189116,1.81476 0,4.84507 2.633265,11.54602 4.89681,12.46104 3.424007,1.38415 -6.299178,3.71389 -19.6025062,4.69691 -4.6881844,0.34641 -6.0823812,0.11589 -7.2760242,-1.20307 z M 39.759862,320.25172 c 2.384842,-0.99645 3.486631,-2.28914 4.59454,-5.39063 1.693203,-4.73994 2.739105,-15.79859 1.494197,-15.79859 -0.466729,0 -0.863318,0.10547 -0.881307,0.23437 -1.962243,14.06104 -4.467141,19.45313 -9.036961,19.45313 -3.074291,0 -2.786959,1.83885 0.427906,2.73848 0.145467,0.0407 1.676199,-0.51583 3.401625,-1.23676 z m -10.08447,15.47187 -2.497599,-4.58891 3.406436,1.7367 c 2.559263,1.30478 4.839677,1.64218 9.169423,1.35665 5.410149,-0.35677 9.214528,0.55379 7.881825,1.8865 -0.516594,0.51659 -13.430559,4.13906 -14.908356,4.1819 -0.304771,0.008 -1.678049,-2.04894 -3.051729,-4.57284 z m 18.591238,-2.92724 c -1.665633,-1.84051 -1.647177,-1.95978 0.689057,-4.45313 2.563161,-2.73554 6.347414,-9.66429 6.371169,-11.66525 0.04296,-3.61829 1.560936,-3.68223 7.672073,-0.32313 6.090257,3.34762 11.96784,5.3885 19.029289,6.60756 l 3.746969,0.64686 -8.903219,3.02852 c -4.89677,1.66568 -9.785475,3.50449 -10.863788,4.08621 -7.543277,4.06948 -15.131972,4.95591 -17.74155,2.07236 z m 130.79587,-0.15492 c -1.28906,-0.53992 -4.53203,-1.98793 -7.20661,-3.2178 -2.67457,-1.22987 -5.41676,-2.25541 -6.09375,-2.27898 -0.67699,-0.0235 3.1988,-1.43716 8.61286,-3.14132 5.41406,-1.70416 10.99054,-3.56779 12.39216,-4.1414 l 2.54841,-1.04293 -3.76438,7.4655 c -2.0704,4.10602 -3.85,7.43694 -3.95466,7.40205 -0.10465,-0.0349 -1.24497,-0.5052 -2.53403,-1.04512 z m -32.49699,-10.97038 c -4.8008,-0.83857 -6.23934,-1.98693 -8.74542,-6.98129 -1.07867,-2.14968 -2.6278,-4.85773 -3.44251,-6.01789 -1.44661,-2.06001 -1.40922,-2.10937 1.59787,-2.10937 3.15133,0 10.40079,-4.01377 13.56549,-7.51072 2.12316,-2.34605 2.50068,-2.3309 6.30853,0.25317 4.50536,3.05742 29.77718,14.1309 30.53041,13.37766 0.77755,-0.77754 -1.38002,-2.06791 -8.72363,-5.21728 -3.09375,-1.32678 -10.17314,-4.69743 -15.73198,-7.49034 -10.01379,-5.03119 -10.10139,-5.10419 -9.49987,-7.91712 0.33392,-1.56152 0.68415,-2.93027 0.7783,-3.04168 0.0941,-0.1114 4.58001,1.24165 9.9686,3.00678 5.3886,1.76514 11.52583,3.64812 13.63831,4.18442 3.18098,0.80756 4.12832,1.61257 5.51402,4.68548 0.92023,2.04072 3.29802,5.31138 5.28399,7.26814 3.38955,3.33972 4.86886,5.83265 2.64581,4.45873 -0.54812,-0.33875 -1.83399,0.14192 -2.85748,1.06817 -1.0235,0.92625 -2.36801,1.79931 -2.9878,1.94013 -0.6198,0.14081 -5.369,1.48999 -10.55379,2.99815 -10.09621,2.93684 -20.96471,4.14952 -27.28885,3.04486 z m -65.251351,-3.94098 c -1.941275,-0.45736 -6.160025,-2.057 -9.375,-3.55474 -3.214975,-1.49774 -7.532909,-3.42987 -9.595409,-4.29363 l -3.75,-1.57047 7.96875,-2.584 c 4.382812,-1.42121 9.445312,-3.27205 11.25,-4.11298 4.666917,-2.17465 13.034841,-5.36425 14.073131,-5.36425 0.483296,0 1.507574,1.21607 2.276175,2.70238 1.559203,3.01517 9.285054,8.54762 11.936424,8.54762 2.18658,0 2.1568,0.43177 -0.3951,5.72828 -2.01203,4.17599 -2.32573,4.40407 -6.79688,4.94174 -6.258351,0.75258 -13.275287,0.5771 -17.592091,-0.43995 z m 156.342091,-4.63696 c -3.09375,-2.02445 -5.92284,-3.68921 -6.28687,-3.69946 -0.36403,-0.0102 -2.68434,-1.20724 -5.15625,-2.65997 -2.47191,-1.45273 -6.81469,-3.38596 -9.65063,-4.29608 -7.78294,-2.49771 -10.34633,-3.38287 -15.44283,-5.33253 -2.56386,-0.98082 -6.68661,-2.05193 -9.16166,-2.38025 -2.47506,-0.32833 -4.6954,-0.91298 -4.93411,-1.29921 -0.3929,-0.63572 0.98899,-2.69745 7.06737,-10.54433 4.44291,-5.73556 17.07581,-12.6586 25.19248,-13.80588 8.58576,-1.21359 13.14464,0.12048 21.2442,6.21669 l 7.1117,5.3527 -0.17187,9.91198 c -0.0945,5.45159 -0.39743,13.60339 -0.67309,18.1151 -0.59392,9.72042 -0.85052,9.84456 -9.13844,4.42124 z M 1.332576,310.82148 c -0.95652529,-3.8111 -0.074467,-4.06687 2.7441351,-0.79571 l 2.6704609,3.09923 -2.4182247,0 c -1.7863123,0 -2.5693017,-0.60194 -2.9963713,-2.30352 z m 59.028402,-7.77461 c 3.022773,-5.7871 6.605241,-7.95962 17.689557,-10.72751 5.796775,-1.44753 11.06775,-2.63186 11.713278,-2.63186 0.645528,0 1.173687,1.01596 1.173687,2.25769 0,1.9026 -0.847808,2.55729 -5.390625,4.16274 -2.964844,1.04779 -9.804049,3.61777 -15.198233,5.71107 -5.394185,2.0933 -10.151114,3.806 -10.57095,3.806 -0.419838,0 -0.15736,-1.16016 0.583286,-2.57813 z m 43.232742,0.85592 c -4.388183,-2.67611 -9.13812,-8.53594 -8.375933,-10.33311 1.857413,-4.37959 5.094713,-23.23946 5.094713,-29.68083 l 0,-4.20135 3.98438,0.0935 c 7.49071,0.17569 10.80207,2.06198 11.3934,6.49021 0.23944,1.79305 1.16563,8.44621 2.05818,14.7848 1.83113,13.00388 1.52492,14.49786 -4.34083,21.17858 -3.34363,3.80818 -5.65941,4.20184 -9.81391,1.66825 z M 114.375,265.25717 c 0,-1.19467 -0.64401,-1.81967 -1.875,-1.81967 -2.0699,0 -2.47938,1.83312 -0.78743,3.52508 1.40744,1.40743 2.66243,0.60354 2.66243,-1.70541 z m 16.88995,38.20715 c -1.26633,-0.63134 -3.29881,-2.6183 -4.51662,-4.41548 -2.03121,-2.99754 -2.18392,-4.02111 -1.84791,-12.38531 0.20145,-5.01475 0.65184,-9.40329 1.00085,-9.7523 0.34901,-0.34901 0.90664,-2.68553 1.23917,-5.19226 0.49027,-3.69585 0.84509,-4.3581 1.87639,-3.5022 1.60044,1.32825 4.10817,0.43179 4.10817,-1.4686 0,-0.90639 -0.86407,-1.43567 -2.34375,-1.43567 -1.28906,0 -2.34375,-0.41215 -2.34375,-0.91589 0,-1.86271 4.77997,-3.9578 10.1383,-4.44368 l 5.51785,-0.50033 0.60942,3.04714 c 0.33518,1.67592 0.60943,5.22032 0.60943,7.87641 0,4.73987 1.44778,18.74303 2.35266,22.75522 1.23462,5.47431 -10.86046,13.09481 -16.40021,10.33295 z m -106.4212,-4.71264 c -1.546875,-0.46597 -3.545057,-1.21948 -4.440404,-1.67446 -0.895347,-0.45497 -2.477379,-0.82722 -3.515625,-0.82722 -2.272551,0 -2.362933,-1.04916 -0.414909,-4.81622 1.926401,-3.72525 8.445771,-6.65727 14.037848,-6.31339 4.367895,0.26861 5.822163,-1.14553 2.122793,-2.06421 -3.210414,-0.79725 -11.20865,1.29636 -14.637699,3.83157 -1.652274,1.22158 -3.495117,3.57884 -4.095206,5.23836 -1.009768,2.79246 -1.34129,2.9801 -4.4489346,2.51807 -1.8468251,-0.27459 -4.0976804,-1.19901 -5.0019011,-2.05429 -1.5656886,-1.48094 -1.555306,-1.72909 0.217865,-5.20706 C 9.3637315,278.1716 16.101518,274.41261 28.125,274.29602 c 5.009969,-0.0486 9.187072,0.42903 11.25,1.2863 4.74883,1.97347 12.79896,6.91676 13.04656,8.01143 0.116628,0.51562 0.750676,1.57031 1.408996,2.34375 1.90988,2.24385 2.502218,4.71985 1.231764,5.14883 -0.635838,0.2147 -3.265445,0.62233 -5.84357,0.90583 -8.181765,0.89972 -17.232039,3.61672 -19.737862,5.92556 -1.438433,1.32535 -2.419935,1.50186 -4.637138,0.83396 z m 152.32805,-5.26861 c -0.78208,-0.45732 -4.93379,-1.72814 -9.22604,-2.82405 -4.29226,-1.09591 -9.45316,-2.65238 -11.46869,-3.45883 l -3.66457,-1.46628 -0.0151,-5.75758 c -0.0367,-13.97923 -6.49949,-49.75489 -10.25621,-56.77436 -1.84359,-3.44479 -0.17138,-7.24734 4.20898,-9.57113 l 4.04628,-2.14654 6.00801,2.4673 c 11.41774,4.68892 16.70589,4.57005 23.1383,-0.5201 4.62713,-3.66157 6.44758,-6.51845 9.35529,-14.6815 1.19384,-3.35156 2.85969,-6.88044 3.70191,-7.84196 2.81271,-3.21117 10.87399,-5.12847 11.76794,-2.79891 0.73639,1.91903 8.11798,5.2282 13.04373,5.84754 5.01598,0.63066 4.26279,-0.47268 8.07205,11.82458 1.28521,4.14898 1.83934,9.74418 2.40808,24.31482 0.28048,7.18566 0.68684,13.93566 0.90304,15 0.21618,1.06435 0.63751,4.85901 0.93626,8.43259 0.29875,3.57357 0.78841,7.47443 1.08813,8.66859 0.57264,2.2816 0.26343,2.31413 -7.45185,0.78394 -3.69632,-0.7331 -18.18929,3.82798 -23.94199,7.53478 -3.16055,2.03653 -5.75014,4.04409 -5.75465,4.46124 -0.005,0.41715 -0.43008,0.49772 -0.9457,0.17904 -0.51563,-0.31867 -0.94326,-2.55842 -0.9503,-4.97721 -0.0144,-4.94218 -0.79771,-8.61654 -1.83692,-8.61654 -0.38143,0 -0.91787,4.396 -1.19209,9.76889 -0.44982,8.81361 -0.75107,10.09991 -3.08058,13.15406 -1.4201,1.86185 -3.29826,4.72071 -4.17368,6.35303 -1.79476,3.34653 -2.67538,3.83997 -4.71964,2.64459 z M 161.41363,278.4375 c 2.60922,-5.15789 14.17399,-24.88985 15.90408,-27.13575 2.29207,-2.97543 6.1615,-8.29185 9.24479,-12.70193 1.28906,-1.84376 3.48808,-4.70877 4.88671,-6.36668 2.70654,-3.20831 1.83788,-4.76886 -1.14959,-2.06523 -0.97867,0.88568 -6.33316,8.30139 -11.89888,16.47937 -13.02042,19.13152 -21.88232,34.47073 -21.81739,37.76408 0.0244,1.23791 3.11676,-2.58658 4.83028,-5.97386 z m -12.66883,11.30213 c -0.34089,-1.70445 -0.6554,-6.3158 -0.69891,-10.24744 -0.0435,-3.93164 -0.40601,-9.67969 -0.80555,-12.77344 -0.71532,-5.53878 -0.59387,-6.94729 0.50433,-5.84908 1.03026,1.03026 3.16636,27.78858 2.3866,29.89644 -0.70636,1.90948 -0.81543,1.82874 -1.38647,-1.02648 z m -84.257468,0.60871 c -1.399155,-0.62128 -4.14761,-3.4499 -6.107678,-6.28584 -3.558789,-5.14906 -3.562106,-5.16278 -2.377845,-9.84375 0.652253,-2.57813 1.808175,-8.80486 2.568716,-13.83718 1.5306,-10.12762 4.912517,-18.65949 8.194087,-20.67195 1.177901,-0.72237 4.46195,-1.7595 7.297888,-2.30474 19.322348,-3.71497 18.450548,-3.21737 21.523425,-12.28494 1.306716,-3.85589 1.814053,-4.37327 4.559195,-4.64943 l 3.08886,-0.31076 -2.33472,4.60736 c -2.114941,4.17364 -5.093716,14.89726 -6.617107,23.82166 -0.322265,1.88789 -1.163225,10.58839 -1.868803,19.33446 -0.705578,8.74607 -1.721392,16.72134 -2.257363,17.7228 -0.746483,1.39482 -3.359664,2.30001 -11.168479,3.86867 -11.704857,2.35131 -11.153645,2.31962 -14.500176,0.83364 z M 93.954197,286.875 c -0.02672,-7.70094 2.124028,-25.62781 3.113756,-25.95369 1.186116,-0.39056 0.05362,14.32745 -1.831312,23.80082 -1.190194,5.98157 -1.2687,6.11337 -1.282444,2.15287 z M 7.5,272.54454 c 0,-3.2899 1.8724826,-5.00456 6.743269,-6.17492 12.39081,-2.97728 35.444231,1.17898 35.444231,6.39016 0,2.39057 0.147706,2.40173 -4.803794,-0.36261 -4.745484,-2.64932 -15.342104,-4.59754 -20.344837,-3.74045 -5.653399,0.96857 -12.524873,3.11632 -14.8550331,4.6431 C 7.6123082,274.65713 7.5,274.61829 7.5,272.54454 Z m 110.44707,-3.95079 c -0.21069,-1.80469 -0.0459,-3.28125 0.36618,-3.28125 0.41209,0 0.74925,1.47656 0.74925,3.28125 0,1.80469 -0.16478,3.28125 -0.36618,3.28125 -0.2014,0 -0.53856,-1.47656 -0.74925,-3.28125 z m 6.74043,-0.46875 c 0,-2.0625 0.32755,-3.75 0.7279,-3.75 0.40034,0 0.56697,1.6875 0.37028,3.75 -0.19669,2.0625 -0.52424,3.75 -0.72791,3.75 -0.20365,0 -0.37027,-1.6875 -0.37027,-3.75 z m -71.290017,-0.51293 c -0.61717,-1.41315 -8.521619,-4.92405 -14.72213,-6.53907 -6.714021,-1.74878 -16.145967,-1.77349 -22.753117,-0.0596 -2.81126,0.72922 -5.403093,1.14559 -5.759629,0.92523 -0.356537,-0.22035 0.178099,-3.24278 1.188078,-6.7165 2.267007,-7.79714 3.1757,-12.38331 4.594987,-23.19086 0.943967,-7.18809 3.597463,-20.62215 6.573715,-33.28125 3.121983,-13.27895 8.97816,-19.23785 18.52657,-18.85155 6.89397,0.27892 12.573494,3.27927 21.347485,11.27737 3.897191,3.55257 9.910004,7.9501 13.361805,9.77231 11.188141,5.90622 14.44293,9.09914 16.916892,16.59532 1.430642,4.33489 -0.369991,10.80406 -3.699018,13.28954 -1.42347,1.06277 -5.238038,2.1794 -9.359775,2.73987 -3.826403,0.52029 -8.315771,1.14135 -9.976374,1.38012 -3.761448,0.54084 -8.381156,4.33779 -9.984258,8.2061 -1.135155,2.73914 -3.186173,11.38363 -5.033755,21.21592 -0.436009,2.32031 -0.985673,3.77699 -1.221476,3.23707 z m -16.44063,-21.30773 c 4.310248,-7.34139 13.279077,-17.17547 16.867684,-18.49494 2.00314,-0.73653 2.453129,-1.28173 1.688762,-2.0461 -0.764366,-0.76437 -1.716007,-0.60042 -3.571414,0.61529 -4.374351,2.86618 -14.317868,13.54146 -15.995008,17.17211 -2.181649,4.72279 -4.751939,8.00286 -5.205309,6.64276 -0.200682,-0.60205 -0.05332,-3.66921 0.327486,-6.81592 0.380798,-3.14671 1.145463,-10.57285 1.699254,-16.50254 1.729003,-18.51321 3.691464,-28.06893 6.401769,-31.17188 0.788163,-0.90234 2.694984,-1.64062 4.237379,-1.64062 2.285877,0 4.122286,1.38574 9.932823,7.49523 6.21159,6.53119 7.972555,7.80649 13.690971,9.91508 6.422616,2.36827 10.786999,5.35029 10.775474,7.36248 -0.0032,0.55465 -0.635989,2.21684 -1.40625,3.69375 -1.72472,3.30699 -1.72553,3.40846 -0.02721,3.40846 1.869564,0 3.314235,-2.96681 3.314235,-6.80619 0,-4.24953 -2.604931,-6.53276 -10.99649,-9.63844 -6.74913,-2.49784 -7.633747,-3.20643 -18.180258,-14.56264 -4.307638,-4.63836 -10.6811,-4.80145 -13.599108,-0.34801 -2.103454,3.21027 -4.023189,11.35984 -5.067319,21.51153 -1.030429,10.01848 -2.39275,22.24471 -3.332318,29.90607 -0.582955,4.75348 -0.438004,5.7068 1.031046,6.78099 2.218013,1.62185 3.123627,0.83073 7.4138,-6.47647 z m 84.486727,16.47937 c -0.78726,-3.13672 -0.35984,-29.72701 0.53954,-33.56496 0.3625,-1.54688 0.63997,5.94141 0.61661,16.64062 -0.0233,10.69922 -0.15025,19.45313 -0.28197,19.45313 -0.13173,0 -0.5251,-1.13796 -0.87418,-2.52879 z m -4.12022,-1.22121 c -0.13017,-0.25781 -0.46323,-3.84375 -0.74012,-7.96875 -0.37538,-5.5924 -0.23215,-7.23845 0.56313,-6.47166 0.67185,0.64778 0.94576,3.59683 0.74013,7.96875 -0.17954,3.81722 -0.43296,6.72947 -0.56314,6.47166 z m 8.15048,-7.26563 c 0.38348,-7.86997 1.95401,-12.86546 1.9895,-6.32812 0.0286,5.26017 -1.04596,13.59375 -1.75276,13.59375 -0.32492,0 -0.43145,-3.26953 -0.23674,-7.26563 z m -14.68638,4.39731 c -1.1997,-0.48096 -4.04528,-0.98155 -6.32349,-1.11245 -3.94639,-0.22673 -4.13816,-0.37094 -4.05644,-3.05048 0.0472,-1.54687 0.57243,-5.13281 1.16725,-7.96875 1.04148,-4.96556 1.18549,-5.14593 3.89397,-4.87726 1.54688,0.15344 4.03001,0.75572 5.51808,1.3384 2.63324,1.03109 2.65018,1.07992 0.63352,1.82593 -2.3864,0.88279 -2.30727,3.86863 0.1149,4.33509 1.01616,0.19569 1.68675,-0.45225 1.92941,-1.86424 0.20456,-1.19029 0.55354,1.10635 0.77551,5.10364 0.42008,7.56499 0.26051,7.83892 -3.65271,6.27012 z m 18.01825,-2.1362 c 0.29903,-1.1147 0.54945,-3.56926 0.55649,-5.45459 0.0111,-2.96359 0.26674,-3.36145 1.8878,-2.93753 1.4016,0.36652 1.875,0.0288 1.875,-1.33777 0,-2.48374 -0.97704,-3.27485 -2.49187,-2.01767 -0.92816,0.77031 -1.25813,0.7621 -1.25813,-0.0313 0,-2.32952 10.40349,-4.09471 11.70657,-1.98628 0.55894,0.90438 3.31906,14.41427 2.99258,14.64769 -0.0924,0.066 -3.68785,0.35048 -7.99001,0.63214 -7.66942,0.50209 -7.81149,0.47253 -7.27843,-1.51465 z M 96.5625,255.81122 c 0,-3.82448 2.204091,-13.93622 3.037725,-13.93622 0.461245,0 0.625055,0.73828 0.364041,1.64062 -0.261029,0.90235 -0.760482,4.48829 -1.109897,7.96875 -0.349416,3.48047 -1.008028,6.32813 -1.463588,6.32813 -0.45555,0 -0.828281,-0.90058 -0.828281,-2.00128 z m 48.85486,-3.40722 c -0.58825,-2.95501 -1.32357,-6.32197 -1.63404,-7.48213 -0.31048,-1.16015 -0.14863,-2.10937 0.35968,-2.10937 0.50829,0 1.18703,1.37109 1.5083,3.04687 0.32127,1.67579 0.95429,4.84893 1.40672,7.05145 0.45243,2.2025 0.50902,4.19837 0.12575,4.43524 -0.38327,0.23687 -1.17816,-1.98705 -1.76641,-4.94206 z m -28.63332,-15.45088 c 0.35616,-3.73828 0.80358,-6.97265 0.99426,-7.1875 0.19069,-0.21484 0.3467,2.84376 0.3467,6.79688 0,4.44024 -0.38003,7.1875 -0.99427,7.1875 -0.66881,0 -0.78229,-2.22485 -0.34669,-6.79688 z m 8.83064,3 c -0.006,-1.7789 -0.27181,-4.8164 -0.59141,-6.75 -0.34867,-2.10942 -0.20549,-3.51562 0.35797,-3.51562 1.36193,0 2.48098,11.26278 1.24214,12.50162 -0.70617,0.70617 -1.0014,0.0517 -1.0087,-2.236 z m -17.80218,-0.42639 c -2.32031,-0.64124 -4.18206,-1.53536 -4.13722,-1.98694 0.0448,-0.45157 0.62194,-2.71948 1.28242,-5.03979 0.66049,-2.32031 1.34884,-4.74609 1.52967,-5.39063 0.43628,-1.555 4.03207,-1.43373 6.95013,0.23438 2.31419,1.32292 2.31715,1.34023 0.23437,1.37302 -1.4733,0.0232 -2.10937,0.59863 -2.10937,1.90823 0,1.28174 0.625,1.875 1.9753,1.875 1.41605,0 1.8142,0.41985 1.40625,1.48293 -0.31298,0.8156 -0.56905,2.71404 -0.56905,4.21875 0,3.01249 -0.26377,3.06575 -6.5625,1.32505 z m 21.5625,-1.21708 c 0,-1.0039 -0.26367,-3.14363 -0.58594,-4.75496 -0.51684,-2.5842 -0.33812,-2.92969 1.51555,-2.92969 1.72458,0 2.02273,-0.41191 1.66242,-2.29678 -0.42675,-2.23238 0.69071,-3.32822 3.39386,-3.32822 1.02283,0 5.8779,12.88081 5.10869,13.55367 -0.17233,0.15074 -2.73911,0.56819 -5.70395,0.92767 -4.94047,0.59899 -5.39063,0.50116 -5.39063,-1.17169 z m 13.74394,0.65266 c -1.96097,-7.06136 -4.69229,-14.65443 -5.68873,-15.81465 -1.10514,-1.28678 -1.63491,-2.52697 -3.8142,-8.92891 -0.35105,-1.03125 1.00026,1.12785 3.0029,4.798 3.50251,6.4189 8.2323,19.88204 7.30915,20.80519 -0.24553,0.24553 -0.60964,-0.1413 -0.80912,-0.85963 z M 99.836081,237.1875 c 2.139179,-7.4628 3.675979,-11.49507 4.004949,-10.50818 0.4549,1.3647 -2.45243,10.60393 -3.74914,11.91443 -0.612865,0.61939 -0.699668,0.14221 -0.255809,-1.40625 z M 118.3119,224.53125 c 0,-2.0625 0.33777,-4.80469 0.7506,-6.09375 0.64133,-2.00254 0.7506,-1.79782 0.7506,1.40625 0,2.0625 -0.33777,4.80469 -0.7506,6.09375 -0.64132,2.00254 -0.7506,1.79782 -0.7506,-1.40625 z m 5.96997,-1.55416 c -0.81986,-4.98039 -0.073,-9.53776 1.82054,-11.10928 1.77711,-1.47487 5.39835,-0.79723 5.66546,1.06017 0.12035,0.83695 0.93482,3.03059 1.80993,4.87475 0.87511,1.84415 1.33233,3.77172 1.01606,4.28347 -0.31629,0.51176 -2.44131,1.21032 -4.72229,1.55238 -2.72577,0.40876 -4.27123,1.1503 -4.50904,2.16355 -0.199,0.84789 -0.6853,-0.42338 -1.08066,-2.82504 z m -12.71937,1.15562 c -1.97505,-0.56483 -2.30332,-1.16133 -2.08678,-3.7918 0.32151,-3.90549 2.86961,-9.40341 4.35816,-9.40341 0.61614,0 1.8953,0.56673 2.84258,1.2594 1.60632,1.17457 1.63244,1.62769 0.3878,6.72733 -1.42515,5.83921 -1.85925,6.25017 -5.50176,5.20848 z m -5.60365,-2.62161 c -0.0311,-1.67072 4.60778,-11.88197 5.15111,-11.33865 0.25337,0.25338 -0.11099,1.68932 -0.80969,3.19099 -0.69869,1.50167 -1.95655,4.20687 -2.79521,6.01156 -0.83868,1.80469 -1.53448,2.76593 -1.54621,2.1361 z M 95.312503,215 c -0.343753,-0.34375 -0.625003,-1.1875 -0.625003,-1.875 0,-0.88783 1.47135,-1.25 5.078128,-1.25 3.185302,0 5.254382,-0.4368 5.550982,-1.17188 0.26007,-0.64453 0.50617,0.19922 0.54687,1.875 l 0.074,3.04688 -5,0 c -2.750003,0 -5.281253,-0.28125 -5.624997,-0.625 z m 63.124997,-2.75442 c -3.74683,-1.62224 -6.18128,-2.09535 -8.90625,-1.73082 -3.08769,0.41305 -3.44291,0.31117 -2.01125,-0.57681 1.60667,-0.99653 9.62585,-1.19172 17.48,-0.42547 7.84922,0.76577 16.97132,-4.62124 20.63263,-12.18449 2.42788,-5.01533 3.49013,-5.13451 1.41093,-0.1583 -0.78021,1.8673 -1.41856,4.09123 -1.41856,4.94206 0,1.81288 -4.72979,7.45062 -8.78079,10.46637 -3.83097,2.85195 -11.36605,2.71582 -18.40671,-0.33254 z M 136.125,211.6875 c -2.40681,-2.40681 -0.9266,-3.30243 8.01562,-4.84992 25.32762,-4.38308 35.92326,-7.2669 37.9544,-10.33009 0.3928,-0.59238 0.69145,-0.63589 0.69499,-0.10124 0.01,1.50844 -6.57002,8.0174 -9.24434,9.14448 -1.34856,0.56834 -8.17263,1.27459 -15.16461,1.56943 -12.12957,0.5115 -12.85315,0.65435 -15.77506,3.11422 -3.36577,2.83356 -4.78284,3.15128 -6.481,1.45312 z m -20.57633,-2.34889 c -1.6685,-0.32146 -1.92679,-0.74389 -1.23975,-2.02762 0.4773,-0.89187 1.16546,-4.25221 1.52922,-7.46742 0.63726,-5.63274 0.72518,-5.78812 2.41162,-4.26192 1.11113,1.00557 1.75024,2.85744 1.75024,5.07147 0,4.30396 -0.96992,9.39089 -1.75781,9.21921 -0.32227,-0.0702 -1.53435,-0.3104 -2.69352,-0.53372 z m 8.98955,-4.81556 c -0.17571,-3.05211 -0.18306,-6.23244 -0.0163,-7.06742 0.41457,-2.07635 2.04064,-1.92506 2.04064,0.18986 0,0.9394 0.68026,3.70445 1.51169,6.14457 1.66317,4.88114 1.68495,4.7777 -1.19222,5.66089 -1.89429,0.58148 -2.0448,0.265 -2.34375,-4.9279 z m -31.25697,2.92819 c -2.39609,-0.36931 -12.165758,-5.81742 -11.48338,-6.40377 0.128358,-0.11029 4.45213,0.57513 9.60838,1.52318 5.15625,0.94805 10.90538,1.74186 12.77584,1.76404 3.53718,0.0419 6.64919,2.23431 4.35746,3.06978 -1.5637,0.57007 -11.662266,0.60103 -15.2583,0.0468 z m 43.7999,-5.87045 c 1.28197,-2.05278 1.97403,-2.3436 7.7626,-3.2621 4.355,-0.69102 19.7513,-4.86272 22.5,-6.09647 1.03125,-0.46287 3.5625,-1.35779 5.625,-1.9887 5.7442,-1.75714 18.99731,-8.29324 22.08616,-10.89234 1.51668,-1.2762 2.75759,-2.91567 2.75759,-3.64326 0,-2.12778 3.5483,-1.53971 10.06389,1.66791 4.36435,2.14855 6.72288,4.01677 8.37497,6.63385 3.88616,6.15606 3.85106,6.34824 -0.89825,4.91891 -2.29299,-0.6901 -5.89524,-2.13534 -8.005,-3.21165 -7.52216,-3.83752 -16.93202,-1.99364 -21.44782,4.20274 -3.33207,4.57213 -26.46349,11.46683 -43.66057,13.01378 -6.22305,0.55978 -6.32939,0.53211 -5.15857,-1.34267 z m -26.45615,-1.6805 c 0,-0.57046 -2.84766,-3.86675 -6.32812,-7.32509 -6.284958,-6.24499 -11.92835,-9.70264 -15.900542,-9.74211 -1.139828,-0.0113 -2.504561,-0.54793 -3.032743,-1.19247 -0.528181,-0.64453 -2.079751,-2.56777 -3.447932,-4.27387 -1.368182,-1.7061 -4.567316,-4.28977 -7.109187,-5.74149 l -4.621584,-2.6395 2.772717,-2.22725 c 5.415207,-4.34991 8.873351,-14.62488 8.698281,-25.84468 -0.104453,-6.69405 1.057599,-8.1583 3.19473,-4.02555 2.265217,4.38045 4.103266,6.26654 11.077221,11.36674 10.089299,7.37852 18.416489,11.17471 25.274549,11.52213 5.24347,0.26563 6.61642,-0.0928 13.67065,-3.56905 9.97018,-4.9132 19.15478,-12.57107 24.3555,-20.30696 l 4.0723,-6.05739 -0.53131,7.78601 c -0.50956,7.46739 0.37471,13.34426 2.98979,19.87024 0.51655,1.28906 2.66639,4.0114 4.77743,6.04964 2.11104,2.03824 3.83825,4.00451 3.83825,4.36949 0,0.36499 -1.9154,1.59084 -4.25645,2.72411 -2.34104,1.13329 -5.58151,3.70939 -7.20104,5.72468 -2.98565,3.71525 -7.24848,6.44458 -10.0655,6.44458 -3.73387,0 -15.01806,9.17798 -18.80224,15.29278 l -1.63164,2.63653 -0.66989,-5.36163 c -1.01491,-8.12314 -1.1486,-8.2257 -5.39892,-4.14162 l -3.79709,3.64859 -4.27981,-3.26787 -4.2798,-3.26787 -1.18114,5.79036 c -1.08987,5.34301 -2.18648,8.23113 -2.18648,5.75852 z M 93.75,198.75888 c -13.955345,-1.84792 -25.285277,-6.17187 -31.699081,-12.09763 -5.883405,-5.43572 -14.159272,-8.91417 -20.626449,-8.66955 -5.411384,0.20468 -4.163471,-1.0669 2.475177,-2.52212 7.87462,-1.72616 9.537853,-1.50319 9.537853,1.27859 0,1.4018 0.671535,2.62392 1.640625,2.98578 0.902344,0.33692 3.539062,1.74507 5.859375,3.1292 7.031299,4.19438 23.632621,9.67362 33.326372,10.99933 3.218025,0.44009 6.484718,1.52925 7.695208,2.56572 3.94037,3.37384 2.58177,3.75957 -8.20908,2.33068 z m 51.14062,-5.45123 c 5.49598,-4.6581 13.04341,-8.62015 16.4208,-8.62015 0.93908,0 3.90965,-2.32852 6.60126,-5.1745 2.69161,-2.84598 6.26187,-6.02001 7.93393,-7.0534 2.79012,-1.72439 3.60619,-1.79171 9.92486,-0.81877 3.78663,0.58305 7.22135,1.26319 7.63272,1.51141 0.97824,0.59028 -2.53068,3.89522 -7.60309,7.16111 -7.28692,4.69172 -45.39641,16.79634 -40.91048,12.9943 z M 83.4375,187.43018 c -9.144027,-2.78433 -28.125,-11.55689 -28.125,-12.99872 0,-0.44382 2.057568,-1.30055 4.572373,-1.90384 4.293095,-1.0299 4.871145,-0.93553 9.463917,1.54495 2.69035,1.45302 6.782901,4.66387 9.094559,7.13521 2.679368,2.86447 5.281017,4.69803 7.176708,5.05794 3.079527,0.58466 8.129943,2.82233 8.129943,3.60211 0,0.66052 -0.615766,0.51496 -10.3125,-2.43765 z m 30.40422,-33.63716 C 102.48113,147.46625 90.719977,138.18925 84.123797,130.35202 81.26407,126.95425 78.074856,120.06769 72.240138,104.69131 L 68.387695,94.538859 74.359411,82.632116 c 3.284444,-6.54871 6.191018,-12.526985 6.459054,-13.285056 0.90331,-2.554777 1.802384,-0.197957 2.030788,5.323478 0.320754,7.753866 2.655001,17.39523 8.109504,33.495452 5.809327,17.14759 8.838868,23.4606 12.841933,26.76027 3.82712,3.15463 15.70281,6.16769 20.98209,5.3235 7.6147,-1.21765 18.90401,-7.96035 21.52375,-12.85539 1.28949,-2.40942 5.27438,-18.02135 6.96714,-27.29571 0.7785,-4.265207 2.04739,-10.918973 2.81978,-14.78616 0.77239,-3.867188 1.40483,-9.035156 1.40544,-11.484375 0.002,-7.381396 2.18896,-5.683162 7.95659,6.178041 2.84324,5.84714 5.16952,11.24714 5.16952,12 0,0.752858 0.46741,1.836243 1.03869,2.407528 1.20733,1.207322 0.69656,3.096093 -5.01774,18.555056 -7.24712,19.60576 -17.30813,30.84001 -36.02312,40.22383 -7.99995,4.01124 -10.49617,4.10055 -16.78111,0.60044 z m -0.0857,-19.14864 C 104.59391,131.65659 101.52383,127.41716 95.682881,109.6875 89.407583,90.639379 89.200214,89.920155 87.278632,80.538682 85.081168,69.810315 85.806669,65.193331 90.413933,60.586067 c 4.049439,-4.049443 11.184007,-5.375769 28.670077,-5.329806 12.36359,0.03249 16.17956,0.403109 25.11203,2.438902 1.19063,0.271355 4.04259,2.224278 6.33769,4.339827 3.99018,3.678012 4.15373,4.035845 3.73494,8.171356 -0.95699,9.450277 -4.78467,28.774173 -8.90262,44.944524 -1.30124,5.10972 -4.92834,12.32317 -7.2521,14.4227 -5.31051,4.79809 -17.44667,7.32459 -24.35793,5.07081 z m 11.8656,-4.01598 c 1.07973,-1.07974 -3.40328,-3.18113 -5.62161,-2.63512 -3.63882,0.89567 -4.34581,2.14848 -1.79955,3.1889 2.09804,0.85728 6.32556,0.5418 7.42116,-0.55378 z m -1.16381,-10.39402 c 0.26059,-0.79128 -0.70511,-1.17188 -2.97345,-1.17188 -1.84765,0 -3.35937,0.38672 -3.35937,0.85938 0,2.0589 5.6656,2.33847 6.33282,0.3125 z m -2.76575,-2.85938 c 3.19723,0 6.04782,0.37969 6.33462,0.84375 0.91489,1.48032 2.28581,0.90651 2.28581,-0.95676 0,-2.14189 -2.55909,-2.84791 -11.13742,-3.07264 -4.83113,-0.12657 -6.22234,0.17315 -7.23558,1.55884 -1.66956,2.28326 -0.81242,3.43345 1.81439,2.43474 1.16875,-0.44436 4.74094,-0.80793 7.93818,-0.80793 z m 2.56523,-4.93737 c 0.8901,-1.44022 0.38236,-1.599 -3.54666,-1.10914 -1.92946,0.24056 -3.27565,0.81351 -2.99154,1.2732 0.72464,1.17249 5.79072,1.04537 6.5382,-0.16406 z m 0.74132,-4.08367 c 0.28145,-0.73344 1.44365,-1.47172 2.58268,-1.64062 3.6901,-0.54718 4.21818,-2.86794 1.91372,-8.410259 -2.60029,-6.253822 -3.97484,-20.162889 -1.91181,-19.345505 0.72767,0.288304 3.10686,1.245437 5.28707,2.126961 3.7459,1.514576 4.24888,1.513174 9.14063,-0.02547 2.84713,-0.895527 5.17659,-1.975924 5.17659,-2.400879 0,-1.490271 -4.14879,-4.617667 -7.26851,-5.479061 -2.22462,-0.614246 -4.43067,-0.48461 -7.50662,0.441112 -2.39587,0.721052 -4.53195,1.135183 -4.74684,0.920292 -1.18999,-1.189992 1.23022,-5.228093 4.48548,-7.483996 3.32144,-2.301757 4.38982,-2.550751 9.39212,-2.188916 6.19872,0.448375 7.16786,-0.259091 2.82128,-2.059505 -2.94059,-1.21803 -8.51768,-0.768366 -12.39795,0.999609 -3.27746,1.493307 -6.54301,6.95373 -7.41602,12.400511 -0.99259,6.19286 0.34558,20.230574 2.39088,25.081038 0.40573,0.96216 -0.36638,2.16704 -2.30901,3.6033 -2.89791,2.14251 -2.93292,2.14488 -4.94731,0.3348 -1.11581,-1.00264 -2.82445,-2.10557 -3.79699,-2.45097 -1.62004,-0.57535 -1.64413,-0.76513 -0.28747,-2.26421 2.51789,-2.78224 3.57323,-10.094114 2.9234,-20.254516 -0.50476,-7.892292 -0.99076,-10.04808 -2.90728,-12.896119 -2.39787,-3.563352 -7.09697,-5.486555 -13.40567,-5.486555 -2.61834,0 -9.39849,2.211255 -9.39849,3.065192 0,0.191601 3.960019,0.318597 8.80003,0.282213 7.38662,-0.05553 9.1174,0.219928 10.77599,1.71501 2.84814,2.567367 3.85031,7.247835 3.85625,18.009885 0.005,8.569166 -0.21963,9.809903 -2.33852,12.932256 -1.28906,1.899544 -2.34375,3.983414 -2.34375,4.630824 0,1.65326 1.96283,3.42712 3.7922,3.42712 0.84821,0 2.30578,0.84375 3.23905,1.875 1.96586,2.17225 5.65927,2.48449 6.40487,0.54146 z m 8.67336,-30.206892 c -0.72291,-1.883899 -0.65426,-1.954325 2.26552,-2.323846 3.3009,-0.417756 5.10363,0.827003 3.68073,2.541492 -1.49888,1.806034 -5.22198,1.66976 -5.94625,-0.217647 z m -23.39584,2.841315 c 4.51236,-1.878993 5.04111,-2.702945 4.0198,-6.264056 -2.04314,-7.124004 -9.27319,-9.574648 -14.63429,-4.960332 -3.302531,2.842497 -2.221434,4.281555 1.19666,1.592884 3.34763,-2.633244 6.14014,-2.500493 8.88608,0.422429 l 2.25873,2.404309 -2.6991,-1.026197 c -3.30907,-1.258107 -7.6041,-0.0365 -11.429939,3.250947 -3.023503,2.598015 -2.939681,2.787481 2.040113,4.611648 4.833796,1.770683 6.042576,1.766993 10.361946,-0.03163 z m -7.74971,-2.707364 c -0.794,-2.069151 0.83462,-3.508413 3.53731,-3.126017 1.48793,0.210522 2.21751,0.930644 2.21751,2.188748 0,2.449557 -4.87013,3.242738 -5.75482,0.937269 z m 44.66107,-4.041743 c 0,-1.349346 -3.86034,-4.952638 -6.29946,-5.879987 -3.13609,-1.192341 -8.05096,-0.197582 -10.55641,2.136594 -2.6738,2.491036 -1.82618,3.12693 1.72219,1.291995 4.02207,-2.079892 7.6462,-1.781914 10.91493,0.897431 2.90969,2.385048 4.21875,2.867235 4.21875,1.553967 z m 24.03217,12.713849 c -2.95441,-8.452105 -7.22609,-16.711509 -10.54028,-20.379923 -2.76551,-3.061092 -2.99972,-3.680235 -1.77622,-4.695649 1.91312,-1.587748 1.77345,-2.815053 -0.32037,-2.815053 -2.29452,0 -4.8328,-2.90916 -4.8328,-5.538934 0,-1.835279 -0.35019,-2.03313 -2.68926,-1.519384 -2.20945,0.485277 -3.09977,0.102792 -4.99013,-2.143774 -2.04436,-2.429577 -2.49616,-2.591645 -4.05243,-1.453672 -2.53563,1.854094 -4.71795,1.576756 -6.29615,-0.800134 -1.30657,-1.967805 -1.46928,-1.993281 -2.99381,-0.46875 -2.19843,2.198421 -4.83309,2.024479 -6.55417,-0.43271 -1.34931,-1.926406 -1.53316,-1.953559 -3.17386,-0.46875 -2.34296,2.120358 -4.10936,1.98385 -6.21954,-0.480646 l -1.76104,-2.056754 -0.76085,2.056754 c -0.88128,2.382335 -4.20558,2.74762 -6.92285,0.760706 -1.542,-1.12754 -2.09337,-1.05878 -4.24078,0.528869 -1.43354,1.059866 -3.561927,1.701458 -5.076955,1.530423 -1.832503,-0.206876 -2.925225,0.263353 -3.672769,1.580506 -0.58529,1.03125 -1.192563,2.07372 -1.349506,2.3166 -0.156942,0.242879 -0.578817,-0.02052 -0.9375,-0.585345 -0.358682,-0.56482 -1.966307,-1.311898 -3.572497,-1.660175 -2.695803,-0.584539 -2.964317,-0.413385 -3.492188,2.22597 -0.464073,2.320364 -1.038014,2.8592 -3.045475,2.8592 -2.405454,0 -2.455956,0.117894 -1.832217,4.277276 0.352779,2.352502 0.258718,4.778283 -0.209024,5.390625 -0.467742,0.612341 -1.830869,3.644599 -3.029172,6.738349 -1.198301,3.09375 -2.743839,6.291031 -3.434528,7.10507 -0.690689,0.814037 -1.255799,1.978791 -1.255799,2.588342 0,1.754763 -3.872242,9.525338 -4.746678,9.525338 -1.637497,0 -4.292225,-12.712883 -5.187916,-24.84375 C 61.382628,54.307052 66.395918,36.645988 72.978889,28.307739 84.368598,13.881086 98.627559,3.8649697 112.06792,0.84989436 c 4.34892,-0.97559333 5.38683,-0.8286639 13.06695,1.84978114 4.58855,1.6002541 9.94191,3.9677891 11.89636,5.2611887 1.95447,1.2933997 3.76923,2.3516358 4.03283,2.3516358 0.2636,0 3.54217,1.942717 7.28572,4.317148 10.80201,6.851409 14.80871,11.265864 24.64392,27.151936 2.55634,4.129067 5.35648,15.891579 5.22972,21.968416 -0.21588,10.34863 -1.11841,19.126024 -2.08657,20.292589 -0.5086,0.612819 -1.06497,2.309404 -1.23639,3.770189 -0.47604,4.056749 -0.47772,4.062222 -1.24291,4.062222 -0.3946,0 -1.49165,-2.214844 -2.43788,-4.921875 z"
     id="path4258"
     inkscape:connector-curvature="0" />
</svg>
